<?xml version="1.0" standalone="no"?>
<!DOCTYPE svg PUBLIC "-//W3C//DTD SVG 1.1//EN" "http://www.w3.org/Graphics/SVG/1.1/DTD/svg11.dtd" >
<svg xmlns="http://www.w3.org/2000/svg">
<metadata>
Created by FontForge 20120731 at Fri May 26 09:46:01 2017
 By admin
</metadata>
<defs>
<font id="iconfont" horiz-adv-x="1024" >
  <font-face 
    font-family="iconfont"
    font-weight="500"
    font-stretch="normal"
    units-per-em="1024"
    panose-1="2 0 6 3 0 0 0 0 0 0"
    ascent="896"
    descent="-128"
    x-height="792"
    bbox="-151 -279 1291 1047"
    underline-thickness="0"
    underline-position="0"
    unicode-range="U+0078-E7C5"
  />
<missing-glyph 
 />
    <glyph glyph-name=".notdef" 
 />
    <glyph glyph-name=".notdef" 
 />
    <glyph glyph-name=".null" horiz-adv-x="0" 
 />
    <glyph glyph-name="nonmarkingreturn" horiz-adv-x="341" 
 />
    <glyph glyph-name="x" unicode="x" horiz-adv-x="1001" 
d="M281 543q-27 -1 -53 -1h-83q-18 0 -36.5 -6t-32.5 -18.5t-23 -32t-9 -45.5v-76h912v41q0 16 -0.5 30t-0.5 18q0 13 -5 29t-17 29.5t-31.5 22.5t-49.5 9h-133v-97h-438v97zM955 310v-52q0 -23 0.5 -52t0.5 -58t-10.5 -47.5t-26 -30t-33 -16t-31.5 -4.5q-14 -1 -29.5 -0.5
t-29.5 0.5h-32l-45 128h-439l-44 -128h-29h-34q-20 0 -45 1q-25 0 -41 9.5t-25.5 23t-13.5 29.5t-4 30v167h911zM163 247q-12 0 -21 -8.5t-9 -21.5t9 -21.5t21 -8.5q13 0 22 8.5t9 21.5t-9 21.5t-22 8.5zM316 123q-8 -26 -14 -48q-5 -19 -10.5 -37t-7.5 -25t-3 -15t1 -14.5
t9.5 -10.5t21.5 -4h37h67h81h80h64h36q23 0 34 12t2 38q-5 13 -9.5 30.5t-9.5 34.5q-5 19 -11 39h-368zM336 498v228q0 11 2.5 23t10 21.5t20.5 15.5t34 6h188q31 0 51.5 -14.5t20.5 -52.5v-227h-327z" />
    <glyph glyph-name="zhiwu" unicode="&#xe60f;" 
d="M749 691q43 3 84 -7.5t73.5 -26.5t52.5 -34t20 -30t-15.5 -15t-38.5 -5t-50.5 -7.5t-52.5 -24.5q-16 -13 -31 -27.5t-30 -28.5t-30.5 -26t-34.5 -18q-9 -3 -22.5 -6t-28 -1.5t-30.5 10t-30 27.5q-10 -12 -16.5 -29t-11.5 -36.5t-8.5 -40.5t-5.5 -39q-2 -16 -3 -39
t-0.5 -45.5t2.5 -41.5t6 -27q5 -9 5 -15q0 -5 -5 -10t-20 -5q-16 0 -21.5 5t-5.5 10q-1 6 4 14q5 10 6.5 24t1 30t-1.5 32t-1 32q-16 33 -31.5 55.5t-34.5 42.5q-11 -24 -26 -36.5t-30 -17t-29 -4t-24 2.5q-19 3 -35 11.5t-32.5 19.5t-33.5 23t-34 22q-27 15 -55 16
t-51 -1.5t-38 -2t-15 14t17 33.5t45 40t66 36t80 20q64 6 106.5 -6.5t66.5 -36t30.5 -54.5t-1.5 -61q32 -30 64 -76q5 50 26 101q8 18 15 30t17 26q-16 30 -16.5 64t19.5 63.5t62 50.5t111 25zM443 410q-57 49 -120.5 63t-131.5 -3q-2 0 -1 -0.5t4 -0.5q29 3 60 2.5t62 -9
t62 -25.5t60 -46zM819 604q2 0 3 0.5t-2 0.5q-75 7 -135 -23t-106 -88l10 -18q27 38 56.5 62.5t59.5 39t59 20t55 6.5zM285 81q-9 7 4.5 17t39 20t58 21t62.5 19q13 4 20.5 -0.5t14 -12t16.5 -14t28.5 -6.5t28 6.5t17 13.5t14.5 11.5t20 1.5q30 -8 62.5 -19.5t59 -22.5
t39.5 -20.5t3 -14.5q-24 -13 -65.5 -22t-90.5 -13t-100.5 -4t-97.5 4.5t-82 13.5t-51 21z" />
    <glyph glyph-name="shangjiaqun" unicode="&#xe6d3;" 
d="M633 761q23 -5 38.5 -25t17.5 -50q0 -9 1 -28.5t1 -41t-1.5 -39t-5.5 -21.5q-6 -7 -11.5 -6.5t-5.5 -5.5q0 -3 -1.5 -21.5t-9.5 -51.5q-4 -17 -11.5 -31t-15.5 -25q-11 -13 -21 -23q-1 -13 -1 -25v-22q0 -11 1 -17q1 -13 6.5 -18t20.5 -9q5 -2 18.5 -6t31.5 -10.5t38 -14
t38.5 -14t33 -12t21.5 -8.5q21 -11 27.5 -22t11.5 -29q2 -9 5.5 -33.5t7.5 -51t7 -50t4 -30.5q1 -13 -5 -22t-26 -14q-18 -4 -51 -9t-77 -9t-97 -6.5t-111 -2.5t-111.5 2t-98 5.5t-79 8t-53.5 10.5q-4 1 -10 4t-12 7.5t-9 11t-2 14.5t5.5 33t11 53.5t11.5 53.5t7 31
q4 13 11.5 26t26.5 28q9 7 33.5 15t51.5 15.5t50.5 12.5t30.5 7q15 3 27 7.5t12 12.5v60q-12 9 -22 20q-9 9 -18 22t-17 27q-14 28 -18 51t-5 27t-7.5 6.5t-10.5 11.5q-8 17 -7.5 36.5t2.5 55.5q3 36 12 68.5t38 60.5q16 13 41.5 22t52 13t50.5 4t37 -3q13 -4 21 -9t13 -9
t8 -7.5t6 -5.5q5 -4 13 -2.5t29 -2.5zM539 200l27 -107l45 121l-43 31zM465 247l-41 -33l46 -121l25 108zM829 647q15 -2 23.5 -14t9.5 -30q0 -5 1 -17t1 -24t-1 -23t-3 -13q-4 -4 -7.5 -3.5t-3.5 -3.5q0 -2 -0.5 -12.5t-5.5 -31.5q-2 -10 -6 -18t-10 -15q-5 -7 -12 -13
q-1 -8 -1 -15v-24q1 -7 4 -10t12 -5q5 -1 20 -6t33 -12t33.5 -12.5t21.5 -8.5q12 -6 16.5 -13t7.5 -18q1 -5 3 -19.5t4 -30.5t4 -29.5t2 -17.5q1 -8 -2.5 -14t-16.5 -8q-10 -2 -26.5 -5t-42.5 -5q-2 12 -6 24q-3 10 -7.5 21t-10.5 20q-11 15 -23.5 24t-24.5 15.5t-24.5 10
t-24.5 7.5q-52 18 -84 25.5t-36 12.5q-2 3 -2.5 7t-0.5 9t1 12q14 4 21.5 5t11.5 2q8 2 15 4.5t7 7.5v36l-2 1l-4 2q-2 1 -4 5q6 13 12 32q6 16 11.5 39.5t9.5 56.5q3 26 4 46.5t1 35.5v32q12 2 26 2t22 -2q18 -5 21.5 -10.5t7.5 -8.5q4 -2 8.5 -1.5t16.5 -1.5zM777 319
l7 -27l19 -6l14 37l-21 18zM724 338l-17 -17l1 -5l31 -9l4 11zM269 670q-16 2 -32 1q-15 -1 -32 -5t-31 -15q-12 -8 -19.5 -19t-11 -23t-4.5 -22t-1 -17q-1 -13 -2 -23.5t1 -19t3 -11.5t4 -5t5.5 -2.5t4.5 -13.5q1 -14 6.5 -26.5t11.5 -21.5q3 -5 7.5 -9.5t9 -9.5t10.5 -10
v-12v-18q-1 -6 -5 -10t-14 -6q-5 -1 -16.5 -4t-25.5 -7l-28 -8t-22 -7q-30 -14 -36 -49q-4 -16 -9 -41l-7 -35t0.5 -21.5t16.5 -14.5q7 -2 18 -3t21 -3q11 -2 24 -3q2 12 6 25q3 11 8.5 22t13.5 22q9 9 20.5 17.5t22.5 17.5q13 9 27 17l-10 26l22 17l24 -27l12 3q2 0 6 2
q2 1 4 1l20 23l17 -14q5 1 9.5 2t9.5 2l10 2q11 2 19 4t9 10q0 4 0.5 6.5t0.5 4.5v3q-10 4 -18 7l-14 4q-7 2 -11 4q-9 3 -10 8.5t-1 14.5v11q0 5 1 10q0 5 1 12q-8 12 -16 27q-7 12 -13.5 28t-11.5 33q-5 24 -7 50.5t-1 48.5q0 25 3 50z" />
    <glyph glyph-name="hebingdanyuan" unicode="&#xe727;" 
d="M1024 511v-189h-170q-12 0 -16.5 -5.5t-4.5 -15.5v-27q0 -8 -7 -14t-17 -8t-22.5 1t-23.5 14q-30 29 -61 66t-58 66q-6 8 -5 20t9 21q28 33 59 65l67 66q5 6 15 7.5t19.5 0.5t17 -5.5t7.5 -9.5v-15q0 -10 4.5 -24t22.5 -14h164zM63 322v189h164q18 0 23 7.5t5 18.5v16
q0 12 7 19t17 8.5t19.5 -1t14.5 -8.5l68 -66q31 -32 58 -65q8 -9 9.5 -21t-6.5 -20q-26 -29 -57.5 -66t-60.5 -66q-12 -11 -24 -15t-22 -2t-16.5 9.5t-6.5 21.5v26q0 10 -4.5 12.5t-18.5 2.5h-169zM896 833q27 0 50 -10.5t40.5 -28t27.5 -40.5t10 -49v-128h-128v128h-321
v-577h321v128h128v-128q0 -27 -10 -50t-27.5 -40.5t-40.5 -27.5t-50 -10h-705q-26 0 -49 10t-40.5 27.5t-28 40.5t-10.5 50v128h128v-128h321v577h-321v-128h-128v128q0 26 10.5 49t28 40.5t40.5 28t49 10.5h705z" />
    <glyph glyph-name="shezhi" unicode="&#xe696;" 
d="M917 361l-70 11q-14 2 -26.5 12t-16.5 21q-6 17 -8.5 40.5t4.5 40.5l42 57q8 11 7 26.5t-11 25.5l-31 31q-10 10 -25.5 11t-26.5 -7l-57 -42q-11 -9 -27 -11t-27 4q-16 7 -37 24.5t-23 29.5l-11 70q-2 14 -13.5 24t-25.5 10h-44q-14 0 -25.5 -10t-13.5 -24l-11 -70
q-2 -14 -12 -26.5t-21 -16.5q-17 -6 -40.5 -8.5t-40.5 4.5l-57 42q-11 8 -26.5 7t-25.5 -11l-31 -31q-10 -10 -11 -25.5t7 -26.5l42 -57q9 -12 11 -27.5t-4 -26.5q-7 -16 -24.5 -37t-29.5 -23l-70 -11q-14 -2 -24 -13.5t-10 -25.5v-44q0 -14 10 -25.5t24 -13.5l70 -11
q14 -2 26.5 -12t16.5 -21q6 -17 8.5 -40.5t-4.5 -40.5l-42 -57q-8 -11 -7 -26.5t11 -25.5l31 -31q10 -10 25.5 -11t26.5 7l57 42q12 9 27.5 11t26.5 -4q16 -7 37 -24.5t23 -29.5l11 -70q2 -14 13.5 -24t25.5 -10h44q14 0 25.5 10t13.5 24l11 70q2 14 12 26.5t21 16.5
q17 6 41 8.5t40 -4.5l57 -42q11 -8 26.5 -7t25.5 11l31 31q10 10 11 25.5t-7 26.5l-42 57q-9 11 -11 27t4 27q7 16 24.5 37t29.5 23l70 11q14 2 24 13.5t10 25.5v44q0 14 -10 25.5t-24 13.5zM512 126q-72 0 -123 51t-51 123t51 123t123 51t123 -51t51 -123t-51 -123
t-123 -51zM512 300zM407 300q0 43 31 74t74 31t74 -31t31 -74t-31 -74t-74 -31t-74 31t-31 74z" />
    <glyph glyph-name="feiji" unicode="&#xe70d;" 
d="M663 -77l-231 174l318 438l-410 -370l-201 151l699 306zM314 -77v175l131 -87z" />
    <glyph glyph-name="tuichu" unicode="&#xe653;" 
d="M775 646q46 -33 82 -74.5t61.5 -89.5t39 -102t13.5 -109q0 -95 -36.5 -178.5t-98.5 -145.5t-145.5 -98.5t-178.5 -36.5q-94 0 -177.5 36.5t-146 98.5t-98.5 145.5t-36 178.5q0 54 13 106.5t36.5 99.5t58 88t77.5 74q23 16 49 12t42.5 -25.5t12.5 -48t-26 -43.5
q-64 -47 -98.5 -115.5t-34.5 -147.5q0 -68 25.5 -127.5t70 -104t104.5 -71t127.5 -26.5t127.5 26.5t104.5 71t71 104t26.5 127.5q0 80 -37 151t-104 117q-22 16 -27 42.5t11 48.5q15 22 41.5 26.5t49.5 -10.5v0zM512 268q-27 0 -46 19t-19 45v390q0 26 19 45.5t46 19.5
t46 -19.5t19 -45.5v-390q0 -26 -19 -45t-46 -19v0z" />
    <glyph glyph-name="yishoufei" unicode="&#xe614;" 
d="M514 -33l-24 24l40 39h-36q-8 -33 -26 -63h46zM888 283.5q0 13.5 -9.5 22.5t-22.5 9h-484q43 -24 75 -63h409q13 0 22.5 9t9.5 22.5zM831 125h-331q3 -17 3 -31.5t-3 -31.5h61l5 4l4 -4h198zM856 157q4 0 8 1l23 23q1 4 1 8q0 13 -9.5 22t-22.5 9h-388q18 -29 26 -63h362
zM350 442h506q13 0 22.5 9t9.5 22.5t-9.5 22.5t-22.5 9h-506q-14 0 -23 -9t-9 -22.5t9 -22.5t23 -9zM546 -65h-99q-32 -39 -75 -63h237zM350 347h506q13 0 22.5 9t9.5 22.5t-9.5 22.5t-22.5 9h-506q-14 0 -23 -9t-9 -22.5t9 -22.5t23 -9zM476 93.5q0 91.5 -65 156.5
t-156.5 65t-156.5 -65t-65 -156.5t65 -156.5t156.5 -65t156.5 65t65 156.5zM330.5 7q-7.5 -15 -20.5 -25t-30 -16h-2.5h-2.5v-35h-31v30h-0.5h-0.5q-13 0 -24.5 2.5t-20 5.5t-14.5 6t-8.5 6t-3.5 7.5t-1 13.5v11t1 6.5t2.5 3.5t3.5 1q3 0 8 -3t13 -7t19 -7.5t25 -3.5
q10 0 17.5 2.5t12.5 6.5t8 10t3 14q0 9 -5 15t-12.5 11t-17.5 9t-20 9t-19.5 11t-17.5 14.5t-12.5 20t-4.5 27.5q0 18 7 32t18.5 23t27.5 14q7 2 16 3v0v33h31v-33h2h2q9 -1 17 -3.5t14 -5.5t8 -5t3 -3.5t1.5 -3.5t0.5 -5.5v-8.5q0 -6 -0.5 -10t-1 -6.5t-2 -4t-3.5 -1.5
t-7 3t-11.5 6t-16 6t-19.5 3q-9 0 -15.5 -2t-10.5 -6t-6 -9t-2 -11q0 -8 4.5 -14.5t12.5 -11t17.5 -9t20 -9t20.5 -10.5t17.5 -14.5t12.5 -20t5 -26.5q0 -21 -7.5 -36zM979 132l-54 54l-226 -227l-74 75l-54 -54l125 -126l3 2l2 -2z" />
    <glyph glyph-name="arrow-up" unicode="&#xe600;" 
d="M877 461l-320 320q-18 19 -45 19t-45 -19l-320 -320q-19 -18 -19 -45t18.5 -45.5t45.5 -18.5t45 19l211 210v-741q0 -27 18.5 -45.5t45.5 -18.5t45.5 18.5t18.5 45.5v741l211 -210q18 -19 45 -19t45.5 18.5t18.5 45.5t-19 45z" />
    <glyph glyph-name="exit-door" unicode="&#xe665;" 
d="M640 224v0v-166q0 -11 -7.5 -18.5t-18.5 -7.5h-230v539q0 37 -36 55q-218 110 -220 110h486q11 0 18.5 -7.5t7.5 -18.5v-230h64v282q0 16 -11 27t-27 11h-628q-16 0 -27 -11t-11 -27v-756q0 -23 21 -34v0q3 -2 71 -38.5t146.5 -79.5t116.5 -63q14 -6 21.5 -1.5t7.5 13.5
v165h282q16 0 27 11.5t11 26.5v218h-64zM960 352l-192 192v-128h-320v-128h320v-128z" />
    <glyph glyph-name="shuaxin" unicode="&#xe628;" 
d="M835 628l-78 -82q-49 50 -114 78t-138 28q-96 0 -178 -47.5t-129.5 -129t-47.5 -177.5t47.5 -178t129.5 -129t178 -47q77 0 146 26t122.5 83t69.5 136q2 11 -4.5 17.5t-16.5 6.5h-73q-11 0 -20 -8t-10 -17v0l-1 -3q-23 -68 -75 -93.5t-138 -25.5q-96 0 -164 68t-68 164
t68 163.5t164 67.5q95 0 166 -69l-101 -101q-1 0 -1.5 -0.5l-0.5 -0.5q-15 -17 -11 -27.5t22 -10.5h256q17 0 27 10.5t10 27.5v260q-1 16 -10.5 19t-26.5 -9z" />
    <glyph glyph-name="guanli" unicode="&#xe67a;" 
d="M82 -201q3 -3 9.5 -6t30.5 -3.5t51 9.5l462 521v11l-72 61h-10l-512 -451q-2 -1 -4 -3.5t-7 -11t-7.5 -17.5t-1 -22.5t9.5 -27.5zM121 -115zM81 -114.5q0 16.5 11.5 28t28.5 11.5t28.5 -11.5t11.5 -28t-11.5 -28.5t-28.5 -12t-28.5 12t-11.5 28.5zM952 -88q1 1 3 3.5
t6.5 11t5.5 16.5t-2 19t-13 21l-246 245q-3 2 -8 5.5t-18.5 4t-24.5 -9.5l-30 -31h-11l-379 389h-10v93l-153 91l-72 -81l92 -144l93 1v-10l378 -389v-11l-20 -21q-2 -1 -4 -3t-6 -8.5t-5.5 -13.5t2 -16.5t12.5 -19.5q15 -14 76.5 -78t116 -120.5l54.5 -56.5q3 -3 8 -6
t18.5 -3.5t23.5 9.5q5 5 33.5 33t54 53.5t25.5 26.5zM635 320h20q5 -2 13.5 -6t34 -11.5t50 -11t57.5 1t60 19.5q4 1 10.5 5t24.5 16.5t34 26.5t34.5 36.5t30.5 46.5q20 34 20 110l-3 55q-9 66 -37 29q-12 -15 -30 -36.5t-35.5 -40.5t-33 -36.5t-24.5 -27.5l-10 -10l-22 -3
l-131 133l-2 21l142 133l16 12q18 19 -25 26q-23 4 -60 4q-6 0 -14.5 -1t-34.5 -7.5t-49.5 -16t-53 -29t-50.5 -44.5t-37 -65.5t-18 -88.5q0 -4 -0.5 -10t0.5 -24t4.5 -35t13 -39t22.5 -39l1 -21z" />
    <glyph glyph-name="chongzhi" unicode="&#xe6c2;" 
d="M513.5 812q-104.5 0 -199.5 -40.5t-164 -109.5t-109.5 -164t-40.5 -199q0 -175 106 -313l39 40q-90 121 -90 273q0 93 36.5 178t97.5 146t146 97.5t178.5 36.5t178 -36.5t146 -97.5t98 -146t36.5 -178.5t-36.5 -178t-98 -146t-146 -98t-178.5 -36.5q-135 0 -248 73
l-34 -43q128 -85 282 -85q105 0 200 41t163.5 109.5t109.5 163.5t41 199.5t-41 199.5t-109.5 164t-163.5 109.5t-199.5 40.5zM293 244v-55h202v-147v0v0v-37h55v37v0v0v147h202v55h-202v110h202v55h-162l118 118l-40 39l-146 -145l-145 145l-40 -39l118 -118h-162v-55h202
v-110h-202z" />
    <glyph glyph-name="huodongyingyong" unicode="&#xe615;" 
d="M6 419l253 -259l-60 -365l313 173l313 -173l-60 366l253 258l-350 54l-156 332l-156 -333l-350 -53v0zM6 419z" />
    <glyph glyph-name="shouji" unicode="&#xe64a;" 
d="M683 764h-341q-32 0 -54.5 -22.5t-22.5 -54.5v-775q0 -32 22.5 -54.5t54.5 -22.5h341q32 0 54.5 22.5t22.5 54.5v775q0 32 -22.5 54.5t-54.5 22.5zM466 702h93q6 0 10.5 -4.5t4.5 -11t-4.5 -11t-10.5 -4.5h-93q-7 0 -11.5 4.5t-4.5 11t4.5 11t11.5 4.5zM512.5 -134
q-19.5 0 -33 13.5t-13.5 33t13.5 33t33 13.5t33 -13.5t13.5 -33t-13.5 -33t-33 -13.5zM729 -10h-433v619h433v-619z" />
    <glyph glyph-name="gantanhao" unicode="&#xe634;" 
d="M1016 -104l-450 880q-18 36 -53.5 36t-54.5 -36l-449 -880q-19 -38 0 -75q19 -35 54 -35h899q35 0 53 35q20 38 1 75v0zM566 -24q0 -9 -5 -14.5t-11 -5.5h-58q-7 0 -12 5.5t-5 14.5v34q0 8 5 14t12 6h58q6 0 11 -6t5 -14v-34v0zM561 128q-4 -6 -11 -6h-58q-6 0 -11 6
t-5 15l-1 143v225q0 8 5 14t12 6h58q6 0 11 -6t5 -14v-223v-146q0 -8 -5 -14v0zM561 128z" />
    <glyph glyph-name="guifan" unicode="&#xe61c;" 
d="M780 117h68q12 0 20 8t8 20t-8 20.5t-20 8.5h-68q-12 0 -20 -8.5t-8 -20.5t8 -20t20 -8zM890 67h-759q-28 0 -48 -20.5t-20 -50.5v-73q0 -29 20 -50t48 -21h759q29 0 48.5 21t19.5 50v73q0 30 -19.5 50.5t-48.5 20.5zM377 117h267q12 0 20 8t8 20t-8 20.5t-20 8.5h-87
v293q40 16 65.5 53t25.5 83q0 60 -41 102.5t-99 42.5t-99 -42.5t-41 -102.5q0 -46 25.5 -83t65.5 -53v-293h-82q-11 0 -19 -8.5t-8 -20.5t8 -20t19 -8zM457 625q-4 -11 -14.5 -15.5t-21 0.5t-15 16t-0.5 21q13 32 41 51t61 19q17 0 33 -5q11 -4 16 -14t1.5 -21.5t-13.5 -17
t-21 -1.5q-8 2 -16 2q-17 0 -30.5 -9.5t-20.5 -25.5z" />
    <glyph glyph-name="diqufenxi" unicode="&#xe6c1;" 
d="M512 580q-4 -2 -5.5 -4.5t-1.5 -4.5l1 -1q-1 -9 1 -15t4 -8l3 -2v-6q0 -6 2.5 -10t5.5 -5l2 -1q4 6 11 9t12 3h5q7 1 13 0t9 -2l2 -2l6 -4q4 0 8.5 1.5l7.5 2.5l2 2q7 3 10 8t3 9v3q-2 13 2.5 20t9.5 8l6 1q4 -1 6.5 0.5t3.5 3.5v2q2 5 6.5 9t7.5 4l4 1q0 8 -4 12.5
t-8 5.5h-4q-8 -1 -15.5 0.5t-11.5 3.5l-3 2q-3 1 -3.5 7.5t0.5 12.5l1 6q-1 6 -8 7.5t-14 0.5l-7 -2q-8 -2 -12 -6t-4 -7v-3v-6q0 -4 -3.5 -7t-5.5 -4l-3 -1q-3 -1 -7 -5t-7 -8l-2 -3q-4 -2 -6.5 -5t-3.5 -5v-2q-1 -4 -5 -8t-7 -6zM804 537q4 1 6 -2q1 -1 3 -2t6 -2t5 2
q5 16 -6 20q-10 -6 -16 -8l-4 -5q0 -3 6 -3zM903 747h-782q-23 0 -39.5 -16.5t-16.5 -39.5v-782q0 -23 16.5 -39.5t39.5 -16.5h782q23 0 39.5 16.5t16.5 39.5v782q0 23 -16.5 39.5t-39.5 16.5zM903 -72q0 -8 -5.5 -13.5t-13.5 -5.5h-283q3 2 4.5 6.5t1.5 9.5v4q4 3 4 5.5
t-2 3.5l-2 1q-1 5 0 8.5t2 4.5l2 1l14 -4l2 16q3 5 1.5 7.5t-4.5 3.5l-3 1q-4 1 -7 4.5t-4 6.5l-1 3q6 1 9.5 3.5t4 3t0.5 1.5q-1 18 4 21q6 1 10.5 7t6 11t1.5 6q5 8 4.5 13t-3.5 7l-3 2q-5 -1 -8.5 0t-4.5 3l-1 1q-10 10 -2 10q3 -3 8 -4t8 -1l4 1l10 2l6 -4q4 1 6 5t2 8
v3q-2 7 0.5 11.5t4.5 5.5l3 1q9 8 9 14t-4 8l-5 2q-10 5 -4 9q5 0 8 1t4 2v1q4 1 5 5t0 6l-1 3q-3 32 -12 30l-4 -2q-2 -4 -5 -6.5t-5 -3.5h-2l-14 -2l-10 -2q-2 0 -5 2.5t-5 4.5l-2 3l-12 10q-3 0 -7.5 -4t-7.5 -7l-4 -3q-2 -2 -5.5 -3.5t-6.5 -0.5h-2l-16 8q-2 -1 -2 -4
t1 -6l1 -2q0 -2 -2.5 -5t-4.5 -5l-3 -2q-3 -4 -4 -7.5t-1 -5.5l1 -1l12 -15l2 -4q1 -2 1.5 -7t-0.5 -10l-2 -10t-2 -8l-1 -3q-1 -13 -8 -20.5t-14 -8.5l-6 -1q-6 4 -10.5 4.5t-6.5 -1.5l-1 -1q-1 -3 -3.5 -4.5t-4.5 -1.5h-2l-14 6q-6 1 -11 -5.5t-7.5 -12t-2.5 -6.5
q-2 -8 -10 -20v0q-19 -9 -14 -25v0q2 1 4 0.5t3 -1t1 -1.5q-1 -14 6 -16v0v-8q6 1 8.5 -2t2.5 -7l-1 -3q-1 -3 -1 -6t1 -5v-1l15 -12l4 -4q1 2 4.5 3t6.5 1h3q2 0 4.5 2.5t3.5 4.5l2 3q1 3 3 4t3 1l2 -1q2 -3 4 -4t3 0h1q1 1 3 3.5t3 4.5l2 2q3 3 7 4t7 1l2 -1q1 -2 5 -3
t8 -1h3q3 -1 5 -2.5t3 -2.5v-1q7 -26 12 -34h-450q-8 0 -13.5 5.5t-5.5 13.5v744q0 8 5.5 13.5t13.5 5.5h744q8 0 13.5 -5.5t5.5 -13.5v-744zM768 483l-2 -6q5 -7 12 0q3 5 2.5 9t-2.5 6l-2 3h-4q-4 1 -5.5 -0.5t-1.5 -3.5l1 -2zM540 193q2 6 3 13t0 11l-1 4l2 8l6 4
q-3 2 -7 5q5 2 10.5 7t8.5 9l3 3q8 16 10 26.5t0 13.5l-2 3q-3 4 -1.5 7.5t5.5 6.5l4 2q3 1 4 3.5t1 4.5l-1 2q-1 3 -8 4.5t-14 1.5h-6q-8 -1 -13 1.5t-6 5.5l-1 3q-3 6 -5 9l10 5q8 2 12 0.5t5 -4.5l1 -2q1 -5 3.5 -8.5t4.5 -4.5l2 -1h26q8 -3 12.5 -7t4.5 -6v-3q3 1 6.5 4
t5.5 5l2 3l12 2q2 1 5 2t5 1l2 1q2 2 5.5 3t6.5 1h2q3 2 4.5 7t1.5 9v4l-2 14q-3 1 -5.5 2.5t-4.5 2.5t-3.5 2.5l-1.5 1.5l-1 1q-2 4 -6 8t-7 5l-3 1q-5 4 -5.5 9.5t1.5 9.5l2 4q2 2 3.5 4.5t2.5 3.5v2q0 2 -1 4t-2 3l-1 1q-5 2 -7.5 7.5t-2.5 10.5v4q-1 5 -6 11.5t-10 10.5
l-4 4h-7q-6 -3 -13 -3.5t-11 0.5l-4 1h-6h-28q-8 2 -12 0t-5 -6l-1 -4q-1 -4 -0.5 -10t1.5 -11l1 -5q0 -6 -4 -8.5t-8 -2.5l-4 1q-4 -1 -6.5 -3.5t-3.5 -4.5v-2q-2 -3 -6.5 -5.5t-8.5 -3.5l-4 -1q-4 -2 -4.5 -6t1.5 -7l1 -4l2 -10l-2 -12q0 -8 3 -13.5t6 -5.5l4 -1
q3 0 8.5 1t9.5 2l4 1q4 2 5.5 -0.5t0.5 -6.5v-3q-1 -2 -1 -4l-13 -6q-8 -3 -11 -1.5t-3 5.5v4q2 5 0.5 7t-4.5 1h-2q-3 -2 -8 -3t-9 -1h-3q-8 3 -11.5 9.5t-3.5 11.5l1 5q0 1 1 4h8q3 3 2.5 5t-2.5 4l-2 1q-2 3 -2.5 5t0.5 3v0h18l-2 6q0 5 2.5 8t5.5 4l2 1q6 1 10.5 4.5
t6.5 6.5l2 3q1 3 3 4.5t3 1.5h2q6 -1 9 0.5t3 3.5v2l-2 22q1 11 6 15.5t9 3.5l5 -1l30 -2q-3 3 -4.5 6t-1.5 4v2q2 9 1.5 13.5t-2.5 5.5l-1 1q-7 4 -13 4t-9 -2l-2 -2q-3 -4 -7.5 -8.5l-7.5 -7.5l-3 -2q-4 -2 -7 -2t-4 1l-1 1q7 3 12 6.5t5 5.5l1 2q1 2 -0.5 4t-3.5 3l-2 1
q-2 1 -3 4.5t-1 6.5v3q-2 6 -4.5 8t-3.5 1l-2 -1q-5 -3 -9.5 -3.5t-6.5 0.5l-3 1q-2 4 -4 5.5t-3 1.5l-1 -1q-1 0 -4 -3.5t-6 -6.5l-2 -4q-5 -6 -10 -7.5t-7 0.5l-3 1l-22 14q-13 7 -12 -2l4 -20q-1 -4 -3.5 -4.5t-4.5 0.5l-2 2q-5 5 -8.5 6.5t-4.5 0.5l-1 -1q-4 -4 -8 -6.5
t-6 -2.5l-2 -1q-5 0 -7.5 -1t-2.5 -2l-1 -1q1 -4 -1 -6t-5 -2h-2q-4 0 -7.5 -3.5t-4.5 -6.5l-2 -4q-1 -2 -4 -1.5t-5 2.5l-3 1q-3 2 -8.5 2.5t-9.5 -0.5h-4q-5 3 -9.5 3.5t-5.5 -0.5l-1 -1q-7 -4 -7.5 -9.5t2.5 -9.5l3 -3q3 -3 3 -5.5t-2 -3.5l-1 -1q-7 -3 -8.5 -7.5
t0.5 -7.5l2 -3q4 -3 6.5 -8t3.5 -9v-3q-1 -4 -3.5 -8t-4.5 -6l-2 -3q-8 -5 -11 -12t-2 -12l1 -4q0 -6 -3 -10.5t-6 -6.5l-3 -1q-10 -2 -14.5 -8t-4.5 -11v-5h-8q-1 -2 -2.5 -4t-2.5 -3l-1 -1q-6 1 -9 0.5t-4 -1.5l-1 -1l12 -14q2 -3 6 -4.5t7 -1.5h3q6 -1 9.5 -4.5t4.5 -6.5
l1 -3q2 -9 5 -13.5t5 -4.5h2q1 0 7.5 5.5t11.5 10.5l5 6q6 7 10.5 8.5t5.5 -0.5l2 -2q3 -10 8 -14t9 -3l3 1h8v-2q-8 -4 -14 -2t-9 6l-3 4q-6 10 -10 10q-3 -2 -7.5 -6.5t-7.5 -8.5l-3 -3q-5 -5 -9 -8t-6 -4l-1 -1l-4 2t-3.5 3t-2.5 3.5t-2 2.5v2q-1 9 -6 14.5t-9 5.5h-4
l-8 2q-1 0 -5.5 4.5t-8.5 9.5l-4 4q-1 -4 -3.5 -8t-4.5 -6l-2 -2q-6 -1 -9 -4.5t-3 -6.5v-3q0 -6 -2 -10t-4 -5l-2 -1q-8 2 -11.5 -1t-3.5 -7l1 -5q-3 -1 -4 -6.5t0 -9.5v-4q2 -9 7 -15t9 -7l4 -2q5 0 8.5 -1t4.5 -2l1 -1q1 -1 1.5 -3t0.5 -3v-2q3 1 5 0.5t3 -1.5v-1
q2 -1 4.5 -4.5t4.5 -6.5l1 -3q4 0 7 -4t4 -7l1 -3q1 -5 4 -10.5t6 -8.5l2 -3q2 -1 3 -4.5t1 -6.5v-3q-2 -3 -2 -11t1 -15l1 -7q3 -2 3.5 -6.5t-0.5 -7.5l-1 -4q-3 -1 -4.5 -3t-1.5 -4v-1q5 -4 9.5 -4.5t6.5 1.5l3 1l6 6q2 2 4 1.5t4 -1.5l2 -2q7 8 10 16.5t2 13.5v4l-6 19
q0 4 1 7t3 4.5t3.5 2.5t3.5 1l1 1q5 0 9 1.5t5 2.5l2 2l14 24q3 6 6.5 9t5.5 3h2l26 8q3 1 5 3q2 -1 4 -1q-3 -4 -9.5 -7t-10.5 -4l-5 -1q-7 1 -12.5 -2.5t-7.5 -7.5l-2 -4q-1 -4 -4.5 -10t-6.5 -10l-3 -4q-4 -4 -9.5 -5.5t-7.5 -0.5h-3q-5 -2 -6 -6.5t0 -8.5l2 -4
q1 -3 2 -7t2 -6v-3q0 -8 -3 -15.5t-6 -10.5l-3 -4q5 5 8.5 7t4.5 2l1 -1q10 0 10 -22q5 -3 5.5 -6.5t-1.5 -5.5l-2 -2q-10 -6 -10 -13.5t5 -12.5l5 -4q6 -6 11 -15t7 -14t2 -6q-1 -8 1 -14.5t5 -8.5l2 -3q7 -11 0 -14q-5 -3 -3.5 -6.5t5.5 -5.5l4 -2q3 2 10 3t13 1h5
q5 2 8 -1t4 -7l1 -4q8 -2 14 0.5t8 4.5l2 3q5 8 9 12.5t6 5.5h1l6 -2q3 -1 4.5 1.5t1.5 5.5v3q1 8 4 13t6 6l2 1v4q0 18 12 23q6 5 9.5 11t3.5 9l1 4q3 8 7.5 13.5t7.5 7.5l4 1q3 1 6.5 0.5t6.5 -2.5l3 -2q2 -1 5.5 0.5t4.5 3.5l2 2q1 2 5 2t7 -1l4 -1q3 -3 7 -2t7 4l4 2
q14 17 14 50q0 6 -2.5 10.5t-4.5 6.5l-3 1q-7 6 -7 12t4 9l3 4l-14 10q-5 5 -5 10t3 8zM371 322q-1 1 -4 2q3 5 8 6.5t8 0.5l4 -1v0v0q-3 -6 -7 -7.5t-7 -1.5zM526 227q-3 -6 -9 -9t-11 -3h-4q-13 2 -20 1t-9 -3l-2 -2q-2 0 -3 -6t-1 -12v-6q-4 0 -7.5 -2.5t-5.5 -4.5l-1 -3
q-3 -8 -10.5 -11.5t-12.5 -3.5l-5 1q-6 0 -12 4l13 10q1 4 3.5 7t4.5 4l2 1q4 -1 5.5 2.5t0.5 7.5v4q-1 4 1.5 7.5t5.5 5.5l3 1q4 2 10.5 2.5t11.5 0.5l4 -1q6 0 10.5 1t6.5 2l1 1l10 20q2 3 4 4t3 1l1 -1l5 -5t5 -4l3 -1l1 -0.5l1 -0.5zM839 477q4 -1 6 1.5t2 5.5v3
q1 6 -4.5 10.5t-10.5 6.5l-6 1q-5 0 -10 2t-8 4l-2 2q-11 14 -14 6q-1 -4 -4 -4q-5 1 -6.5 -2t-0.5 -5l1 -3l18 -22q8 -1 12.5 -0.5t6.5 1.5l1 1h4q4 -4 7.5 -6t5.5 -2h2zM836 459q-5 -2 -2 -6l5 -4q1 -3 3.5 -3.5t4.5 0.5l2 1q1 4 -2 7t-7 4zM859 483q-4 0 -5.5 -2t-1.5 -4
l1 -2l4 -4v-4v-3v-1l2 -4q2 0 3 3t1 6v3q1 5 0 8t-3 4h-1zM806 463q-5 -2 -9 -2t-4 1l-1 1q-1 2 -3 3t-4 1h-1l-18 2q-15 0 -28 8t-19 16l-6 8l-14 18q-14 11 -27 13t-19 -2l-6 -3l-20 -16q-3 -1 -4.5 -2.5t-1.5 -2.5v-1q-1 -5 -3.5 -8.5t-4.5 -4.5l-2 -1q1 -3 6 -9.5
t9 -11.5l5 -5q-2 -8 0 -13.5t5 -7.5l3 -1q3 -1 4.5 -4t1.5 -6v-2l-6 -10q-5 -7 -4.5 -11t3.5 -6l3 -2l12 -8q1 -3 3.5 -6t4.5 -5l2 -1q4 -1 6.5 -2.5t3.5 -2.5v-1l2 -28q-2 -2 -3.5 -4.5t-2.5 -3.5v-2q-1 -7 1.5 -14t5.5 -11l3 -3q4 -5 7 -6t4 0l1 2q2 1 5.5 1.5t6.5 0.5h2
q15 -10 17 -4l6 14q2 6 5.5 11t5.5 7l3 2q2 1 3 -1t1 -5v-2q-1 -6 2 -8.5t6 -2.5l4 1l6 2v0l6 2q2 3 2 9t-1 11l-1 4q-2 9 4 9l2 -1q4 -1 5 -7.5t0 -12.5l-1 -6q0 -6 4 -7t8 1l4 2q6 3 9 7.5t3 7.5v3q-1 1 -2.5 0.5t-3.5 -1.5l-2 -1q-5 -4 -5 2l1 6l4 4q0 2 -1.5 3.5
l-2.5 2.5h-2q-4 2 -4 5t2 4l2 1q5 4 6 7.5t0 5.5l-2 1q-7 4 -13.5 2.5t-10.5 -4.5l-4 -4q-2 -4 -4 -4.5t-3 1.5l-1 1l-6 4q-7 -1 -11 0.5t-5 3.5v2q-2 7 5 10t14 3l7 -1q5 -2 10 -3t7 -1h3q8 3 11.5 6.5t3.5 5.5l-1 2l-16 4q-8 2 -10.5 5.5t-0.5 5.5l1 2q2 8 7.5 13.5
t10.5 6.5l4 2q12 3 17.5 7.5t5.5 7.5l-1 3q-2 2 -4.5 1.5t-4.5 -1.5zM762 165q-5 3 -5.5 8.5t1.5 8.5l2 3q2 2 2 4t-1 3l-1 1q-7 3 -12 6.5t-7 5.5l-1 2q-7 6 -8 10.5t1 6.5l3 1h12q3 2 6 4.5t5 4.5l1 1q6 9 5 14t-5 7l-4 1q-7 2 -11.5 4t-5.5 3l-1 1q-3 7 -1 9t7 1l4 -2
q5 -3 9.5 -4.5t6.5 -1.5h2l2 4q1 8 -2.5 13.5t-7.5 7.5l-4 2q-3 8 -8.5 10t-8.5 0l-3 -2q-4 -2 -9.5 -2.5t-9.5 -0.5l-4 1q-3 3 -7 4t-6 0h-3q-4 -3 -7 -3.5t-4 0.5l-1 1q-10 6 -14.5 15.5t-3.5 16.5v6l-38 -12q-3 -4 -9 -8t-11 -6l-5 -2q-4 -2 -4 -6t2 -7l2 -3
q0 -10 -2.5 -19.5t-4.5 -13.5l-3 -4q-6 -12 -15.5 -18.5t-14.5 -7.5h-6q-6 -3 -8.5 -9.5t-2.5 -11.5l1 -5q0 -5 -1.5 -10.5t-3.5 -7.5l-1 -2q-2 -6 -0.5 -9.5t5.5 -5.5l3 -1q3 -4 6 -5t5 0l1 1q2 0 2.5 4t-0.5 8v4q2 3 4 3.5t3 -0.5l1 -1q8 -7 15 -7t10 4l3 3q8 8 14 10t8 0
l3 -2q1 -2 3 -4.5t4.5 -5t5 -4.5t3.5 -3l2 -1l10 4q5 -1 9 0t6 2l1 2q2 5 6 7.5t6 2.5h2q6 -3 9.5 -13t4.5 -19v-8h2l12 -2q3 -6 3.5 -12t-0.5 -9l-1 -4l-14 -14q-6 -4 -7.5 -8t0.5 -6l1 -2q0 -6 3.5 -7t5.5 1l3 2q1 2 3.5 2.5t4.5 0.5l2 -1q5 4 5 7t-2 4l-3 1q-6 9 6 12
q2 -4 4 -6t3 -2h2q4 2 5 4.5t0 3.5l-1 2q-3 2 -3.5 4t0.5 3l1 1q2 1 4 2.5t3 2.5l1 1q-1 6 0 9.5t2 4.5l2 1q4 3 8 1.5t8 -4.5l4 -3q2 -5 5.5 -5t6.5 2l2 3q1 4 -2.5 9.5t-7.5 8.5zM350 535q5 0 7.5 -4t2.5 -8v-4h6l21 10l8 2l10 -8h4q1 4 0 8.5t-3 7.5l-1 2q-1 6 0.5 8.5
t3.5 2.5l2 -1q5 0 12.5 -4t12.5 -8l5 -4q8 -3 14 -0.5t9 7.5l3 5q2 4 4 6t3 2l1 1l6 -5q3 -2 6 -3t5 -1h2q1 2 4 3t5 1h3v2q-2 3 -3 8t-1 9v4q0 2 3.5 5t6.5 5l4 2q7 4 9.5 11t1.5 12l-1 5q-1 10 -6 15t-10 5h-4l-23 -2q-13 -1 -23.5 5.5t-13.5 13.5l-3 7q-1 6 -3 9.5
t-3 4.5h-2q-15 2 -25 0t-13 -5l-2 -3q-3 -1 -4 -7.5t-1 -12.5l1 -6q-2 -2 -4 -9.5t-2 -12.5v-6q1 -9 0 -13t-3 -5h-1q-4 0 -6 -1.5t-2 -3.5v-1l2 -4q0 -11 -2.5 -15.5t-5.5 -3.5l-3 1l-10 4q-1 -4 -3 -7t-3 -3h-2q-5 0 -7.5 -0.5t-3.5 -0.5l-1 -1q-1 -10 3.5 -15t8.5 -5z
" />
    <glyph glyph-name="xiugaitupian" unicode="&#xe6ba;" 
d="M241 34l236 74l-162 162zM561 516l-212 -212l163 -162l212 211q33 34 33 81.5t-33.5 81t-81.5 33.5t-81 -33zM781 746h-535q-74 0 -126.5 -52t-52.5 -126v-535q0 -74 52.5 -126t126.5 -52h401l312 313v400q0 74 -52.5 126t-125.5 52zM870 169h-223v-225h-401
q-37 0 -63.5 26t-26.5 63v535q0 37 26.5 63t63.5 26h535q37 0 63 -26t26 -63v-399z" />
    <glyph glyph-name="xia" unicode="&#xe601;" 
d="M814 492q8 0 9.5 -3.5t-2.5 -9.5l-298 -357q-5 -6 -11.5 -6t-10.5 6l-298 357q-5 6 -3 9.5t9 3.5h605z" />
    <glyph glyph-name="sanweimoxing" unicode="&#xe62d;" 
d="M512 825l-357 -206l359 -208l358 207zM120 147l359 -207v415l-359 207v-415zM545 352v-412l359 207v412z" />
    <glyph glyph-name="chanpinliebiaonianlihualvimg" unicode="&#xe602;" 
d="M708 681l40 -39l-220 -198l-120 119l-220 -198l40 -40l180 158l120 -118l261 237l40 -39v118h-121zM358 185h-98q-12 0 -20.5 -8.5t-8.5 -21.5v-176q0 -12 8.5 -21t20.5 -9h98q12 0 21 9t9 21v176q0 13 -9 21.5t-21 8.5zM579 301h-99q-12 0 -20.5 -8.5t-8.5 -20.5v-294
q0 -12 8.5 -20.5t20.5 -8.5h99q12 0 21 8.5t9 20.5v294q0 12 -9 20.5t-21 8.5zM799 400h-98q-12 0 -20.5 -8.5t-8.5 -20.5v-393q0 -12 8.5 -20.5t20.5 -8.5h98q12 0 20.5 8.5t8.5 20.5v393q0 12 -8.5 20.5t-20.5 8.5z" />
    <glyph glyph-name="caidanmenu" unicode="&#xe637;" 
d="M128 620h576v-64h-576v64zM128 428h576v-64h-576v64zM128 236h576v-64h-576v64zM896 -20h-256l256 256v-256z" />
    <glyph glyph-name="unie610" unicode="&#xe616;" 
d="M16 796v0v0zM929 383h-43q-23 47 -64.5 102.5t-58.5 55.5h-351q-16 0 -72.5 -56.5t-87.5 -101.5h-46q-18 0 -43.5 -2.5t-62 -10t-61 -25t-24.5 -41.5v-124q0 -11 5 -21t13.5 -17.5t18.5 -10.5q1 61 45 104.5t105 43.5q62 0 105.5 -44t43.5 -106v-1h317v1q0 62 44 106
t105.5 44t105.5 -44t44 -106q18 4 29.5 18t11.5 33v137q0 21 -28.5 43.5t-50.5 22.5v0zM738 499q5 0 11 -5t14.5 -16t15 -22t19.5 -30.5t20 -33.5h-202v107h122v0zM439 499h115v-107h-218q5 8 14.5 18.5t14.5 17.5t13.5 16.5t14 15.5t11.5 12.5t11 11t9.5 8.5t8 5.5t6.5 1.5
v0zM296 129q0 16 -5 30t-13.5 25.5t-20.5 20.5t-26 13.5t-29 4.5q-39 0 -66.5 -27.5t-27.5 -66t27.5 -66.5t66 -28t66.5 28t28 66v0zM817 223q-38 0 -66 -27.5t-28 -66t28 -66.5t67 -28t66.5 28t27.5 66q0 52 -43 80q-24 14 -52 14z" />
    <glyph glyph-name="ordinaryprint" unicode="&#xe645;" 
d="M945 583h-148v162h-570v-162h-148q-20 0 -33.5 -13.5t-13.5 -33.5v-397h195v-67l217 -217h353v282h195v399q0 20 -13.5 33.5t-33.5 13.5zM282 690h460v-107h-460v107zM851 214h-54v108h-55v-412h-226q-23 0 -35.5 20t-14.5 48.5t-0.5 57t4.5 48.5l4 20q-4 -1 -11 -2.5
t-26.5 -4.5t-37.5 -4.5t-40 -0.5t-38 6t-27 17t-12 29v178h-55v-106h-54v185h678v-187zM890.5 468q-15.5 0 -26.5 11t-11 26.5t11 26.5t26.5 11t26.5 -11t11 -26.5t-11 -26.5t-26.5 -11zM677 315h-317v-55h317v55zM360 152h317v55h-317v-55z" />
    <glyph glyph-name="xitongshezhi" unicode="&#xe6f4;" 
d="M966 -4q58 -21 58 -22l-13 -51q-26 4 -66 12q-17 -33 -48 -55l32 -67l-43 -25q-18 26 -44 65q-33 -9 -64 -6l-24 -59l-52 12q5 27 14 67q-22 12 -40 30l-64 -32l-24 44q21 16 54 39q-17 37 -16 76l-57 22l13 51q23 -3 57 -10q12 30 36 55l-31 66l43 24q16 -21 38 -54
q44 20 90 15l24 59l52 -13q-5 -27 -13 -67q33 -18 55 -49l66 32l25 -44q-26 -19 -64 -45q10 -36 6 -70zM825.5 131.5q-45.5 12.5 -86 -11.5t-53 -70.5t11 -88t69.5 -54t86.5 11.5t53 70.5t-11.5 88t-69.5 54zM585 261l60 -72l-53 -54q-30 25 -74 64q-52 -33 -111 -41
l-9 -100h-76q-4 41 -8 103q-55 12 -103 46l-82 -72l-53 54q27 35 70 85q-34 48 -45 104l-101 9v77q38 4 98 9q8 60 40 113l-62 76l53 54q28 -24 70 -61q52 41 115 54l8 103h76q4 -39 8 -99q68 -10 124 -50l62 53l53 -54q-20 -25 -52 -63q40 -57 49 -127l98 -8v-77
q-40 -4 -101 -8q-13 -65 -54 -118zM369.5 638q-82.5 0 -140.5 -59.5t-58 -143.5t58 -143.5t140.5 -59.5t141 59.5t58.5 143.5t-58.5 143.5t-141 59.5z" />
    <glyph glyph-name="ditu" unicode="&#xe6ca;" 
d="M248 501q6 -21 13 -46.5t16 -52t20 -52.5t24 -48v-371l-235 -58v588zM318 533v9.5v8.5q0 43 16 79.5t44.5 64.5t66 44t81 16t81 -16t66 -44t45 -64.5t16.5 -79.5v-11q0 -6 -1 -11q-6 -50 -22.5 -95.5t-42 -88t-58.5 -81.5t-70 -75q-7 -7 -14.5 -7t-14.5 7
q-38 36 -71 75.5t-58.5 82.5t-42 90t-21.5 96v0zM526 638q-19 0 -35 -6.5t-28 -18.5t-19 -28t-7 -34t7 -34t19 -27.5t28 -18t34.5 -6.5t35 6.5t28.5 18t19 27.5t7 34t-7 34t-19 28t-28.5 18.5t-34.5 6.5v0zM380 226q27 -30 53 -55q26 -24 46 -43q25 -22 47 -39q11 10 25 22
q12 10 28 26t37 36v-300l-236 58v295v0zM910 520v-589l-236 -58v360q6 6 11 12t11 12q19 20 35 49t28.5 61.5t22.5 65t17 60.5zM910 520z" />
    <glyph glyph-name="mingxizhang" unicode="&#xe6a2;" 
d="M444 576v-27h36v-11h-36v-26h36v-29h30v29h37v26h-37v11h37v27h-26l35 67h-34l-23 -46q-5 -11 -5 -14q-1 3 -6 14l-22 46h-34l34 -67h-22zM796 749h-599q-13 0 -22 -9t-9 -22v-203h45q16 0 27.5 -11.5t11.5 -27.5t-11.5 -27.5t-27.5 -11.5h-45v-98h45q16 0 27.5 -11
t11.5 -27t-11.5 -27.5t-27.5 -11.5h-45v-98h45q16 0 27.5 -11.5t11.5 -27.5t-11.5 -27t-27.5 -11h-45v-205q0 -13 9 -22t22 -9h599q13 0 22 9t9 22v836q0 13 -9 22t-22 9zM400 665q40 40 96.5 40t96.5 -40t40 -96.5t-40 -96.5t-96.5 -40t-96.5 40t-40 96.5t40 96.5zM343 389
h348v-60h-348v60zM343 309h407v-59h-407v59zM343 230h328v-60h-328v60zM343 71h368v-59h-368v59zM780 -68h-437v60h437v-60zM810 91h-467v60h467v-60z" />
    <glyph glyph-name="luntanguanli" unicode="&#xe702;" 
d="M918 113h-28q-4 15 -12 28l20 20q7 7 7 16.5t-7 15.5l-16 17q-7 6 -16.5 6t-16.5 -6l-20 -21q-12 7 -26 11v28q0 9 -6.5 16t-16.5 7h-23q-9 0 -16 -7t-7 -16v-28q-14 -4 -26 -11l-21 21q-7 6 -16.5 6t-16.5 -6l-16 -17q-7 -6 -7 -15.5t7 -16.5l21 -21q-7 -13 -11 -27h-28
q-10 0 -16.5 -6.5t-6.5 -16.5v-23q0 -9 6.5 -16t16.5 -7h28q4 -14 10 -26l-20 -20q-7 -7 -7 -16.5t7 -16.5l16 -16q7 -7 16.5 -7t16.5 7l20 20q13 -7 27 -11v-28q0 -10 7 -16.5t16 -6.5h23q10 0 16.5 6.5t6.5 16.5v28q14 4 27 11l19 -20q7 -7 16.5 -7t16.5 7l16 16
q7 7 7 16.5t-7 16.5l-19 20q7 12 11 26h28q9 0 16 7t7 16v23q0 10 -7 16.5t-16 6.5zM768.5 10q-28.5 0 -48.5 20t-20 48.5t20 48.5t48.5 20t48.5 -20t20 -48.5t-20 -48.5t-48.5 -20zM769 113q-14 0 -24.5 -10t-10.5 -24t10.5 -24.5t24.5 -10.5t24 10.5t10 24.5t-10 24
t-24 10zM555 65q0 86 58 150q-16 -3 -33 -3q-6 0 -6 6v52q0 7 6 7q50 0 50 69v21h-79q-6 0 -6 7v144q0 6 6 6h159q6 0 6 -6v-131q0 -73 -21 -113q41 16 86 16q85 0 148 -55q30 67 30 143q0 91 -41.5 168.5t-113 122.5t-155.5 45h-277q-84 0 -155.5 -45t-113 -122.5
t-41.5 -168.5q0 -127 75 -221t189 -112v-154q0 -25 23 -34q7 -3 14 -3q16 0 27 12l167 174q-2 12 -2 25zM478 387q0 -96 -37 -135.5t-99 -39.5q-6 0 -6 6v52q0 7 6 7q49 0 49 69v21h-79q-6 0 -6 7v144q0 6 6 6h160q6 0 6 -6v-131z" />
    <glyph glyph-name="jiesuan2" unicode="&#xe6a3;" 
d="M844 503zM805 733v79h-118v-79h-118v79h-118v-79h-119v79h-118v-79h-118v-945h827v945h-118v0zM411 694v0h40v-79h39v39v119h39v-119v-39h40v79h39v-118h-39h-118h-40v118v0zM175 576v118h39v-79h40v39v119h39v-119v-39h39v79h40v-118h-40h-118h-39v0zM684 241v-68h-116
v-60h116v-68h-116v-99h-109v99h-119v68h119v60h-119v68h98l-129 201h115l94 -176h1l15 35l78 141h109l-133 -201h96v0zM844 576h-39h-118h-39v118h39v-79h39v39v119h40v-119v-39h39v79h39v-118v0zM844 576z" />
    <glyph glyph-name="gongzuobeiwang" unicode="&#xe612;" 
d="M854 748h-643q-10 0 -17.5 -7t-7.5 -17v-49h75q13 0 22.5 -9.5t9.5 -23t-9.5 -23t-22.5 -9.5h-75v-30h75q13 0 22.5 -9.5t9.5 -23t-9.5 -23t-22.5 -9.5h-75v-30h75q13 0 22.5 -9.5t9.5 -23t-9.5 -23t-22.5 -9.5h-75v-30h75q13 0 22.5 -9.5t9.5 -23t-9.5 -23t-22.5 -9.5
h-75v-30h75q13 0 22.5 -9.5t9.5 -23t-9.5 -23t-22.5 -9.5h-75v-30h75q13 0 22.5 -9.5t9.5 -23t-9.5 -23t-22.5 -9.5h-75v-30h75q13 0 22.5 -9.5t9.5 -23t-9.5 -23t-22.5 -9.5h-75v-30h75q13 0 22.5 -9.5t9.5 -23t-9.5 -23t-22.5 -9.5h-75v-68q0 -10 7.5 -17t17.5 -7h643
q10 0 17 7t7 17v847q0 10 -7 17t-17 7zM728 471q0 -10 -5 -17.5t-12 -7.5h-277q-7 0 -12 7.5t-5 17.5v107q0 11 5 18.5t12 7.5h277q7 0 12 -7.5t5 -18.5v-107zM260 656q7 0 11.5 -4.5t4.5 -11t-4.5 -11t-11.5 -4.5h-97q-7 0 -11.5 4.5t-4.5 11t4.5 11t11.5 4.5h97zM260 562
q7 0 11.5 -4.5t4.5 -11t-4.5 -11.5t-11.5 -5h-97q-7 0 -11.5 5t-4.5 11.5t4.5 11t11.5 4.5h97zM260 467q7 0 11.5 -4.5t4.5 -11t-4.5 -11t-11.5 -4.5h-97q-7 0 -11.5 4.5t-4.5 11t4.5 11t11.5 4.5h97zM260 372q7 0 11.5 -4.5t4.5 -11t-4.5 -11t-11.5 -4.5h-97
q-7 0 -11.5 4.5t-4.5 11t4.5 11t11.5 4.5h97zM260 277q7 0 11.5 -4.5t4.5 -11t-4.5 -11t-11.5 -4.5h-97q-7 0 -11.5 4.5t-4.5 11t4.5 11t11.5 4.5h97zM260 182q7 0 11.5 -4.5t4.5 -11t-4.5 -11t-11.5 -4.5h-97q-7 0 -11.5 4.5t-4.5 11t4.5 11t11.5 4.5h97zM260 88
q7 0 11.5 -4.5t4.5 -11t-4.5 -11.5t-11.5 -5h-97q-7 0 -11.5 5t-4.5 11.5t4.5 11t11.5 4.5h97zM260 -7q7 0 11.5 -4.5t4.5 -11t-4.5 -11t-11.5 -4.5h-97q-7 0 -11.5 4.5t-4.5 11t4.5 11t11.5 4.5h97v0z" />
    <glyph glyph-name="icon" unicode="&#xe66b;" 
d="M72 162l39 21v176h-39v319h39v62h203v-62h39v-319h-39v-64l39 22v-370h-281v215zM748 201h-170v236h-24v-268h398v-218h-512l-61 57v732h175v-73h24v73h170v-73h204v-466h-202l26 52v184h-28v-236z" />
    <glyph glyph-name="citiehover" unicode="&#xe6f6;" 
d="M128 725h204v-136h-204v136zM674 725h204v-136h-204v136zM674 555v-307q0 -71 -50 -121t-121 -50t-121 50t-50 121v307h-204v-307q0 -102 50 -188.5t136.5 -137t188.5 -50.5t188.5 50.5t136.5 137t50 188.5v307h-204z" />
    <glyph glyph-name="tingchewei" unicode="&#xe636;" 
d="M576 492h-128v-128h128q40 0 52 13t12 51t-12 51t-52 13zM512 812q-139 0 -257 -68.5t-186.5 -186.5t-68.5 -257t68.5 -257t186.5 -186.5t257 -68.5t257 68.5t186.5 186.5t68.5 257t-68.5 257t-186.5 186.5t-257 68.5zM576 236h-128v-256h-128v640h256q91 0 141.5 -55
t50.5 -137t-50.5 -137t-141.5 -55z" />
    <glyph glyph-name="huiyuanrenzheng" unicode="&#xe63d;" 
d="M851 750h-672q-2 0 -4 -0.5t-3.5 -2t-2.5 -2t-2 -2.5l-1.5 -3t-2.5 -4t-2 -4l-159 -283q0 -7 4.5 -16t9.5 -14l4 -5q465 -551 473 -559q6 -6 13 -5.5t12 4.5l492 560q10 19 10 35l-153 283q-10 18 -16 18v0zM799 486l-294 -459l-278 460h-71v89l216 -1l175 -310l204 310
h113v-89h-63h-2zM799 445z" />
    <glyph glyph-name="113gongshixinxichaxun" unicode="&#xe656;" 
d="M375 -40l-11 197q0 1 -1 7q66 18 112 68q64 72 58.5 167t-76.5 159t-166.5 59t-159 -76.5t-58.5 -166.5t76 -159q51 -46 119 -56q-1 -5 -1 -7l11 -197q1 -20 16 -33.5t35 -12.5t33.5 16t12.5 35zM197.5 269q-48.5 44 -52 109t40 114t109 52.5t114 -40t52 -109t-40 -114
t-109 -52.5t-114 40zM828 691h-379v-782h502v656zM491 526h113q2 0 2 -14t-2 -14h-113q-2 0 -2 14t2 14zM901 50h-404q-8 0 -8 14t8 14h404q7 0 7 -14t-7 -14zM901 167h-404q-8 0 -8 14t8 14h404q7 0 7 -14t-7 -14zM901 279h-404q-8 0 -8 13.5t8 13.5h404q7 0 7 -13.5
t-7 -13.5zM901 385h-404q-8 0 -8 14t8 14h404q7 0 7 -14t-7 -14zM873 543h-60v123l60 -61l60 -62h-60z" />
    <glyph glyph-name="jiantou" unicode="&#xe603;" 
d="M321 746l-64 -63l381 -384l-384 -380l63 -64l449 444z" />
    <glyph glyph-name="duihao" unicode="&#xe646;" 
d="M127 316l225 -179l559 515q1 1 4 3.5t11 7t16 6.5t19 0t20 -10q6 -4 9 -12t0.5 -23t-13.5 -31l-584 -684q-2 -2 -5 -6t-14 -11t-21.5 -9.5t-26.5 4t-31 23.5l-252 340q-1 2 -3 5t-5 12.5t-3.5 18.5t4 19.5t15.5 18.5q37 27 76 -8z" />
    <glyph glyph-name="fapiao" unicode="&#xe693;" 
d="M916 67h-77v75h39v74h-727v-74h38v-75h-76q-16 0 -27.5 11t-11.5 27v372q0 18 48 35t146.5 28t226.5 11h38q78 0 146 -4t117.5 -11.5t85.5 -16.5t54 -20t18 -22v-372q0 -16 -11 -27t-27 -11v0zM820 440q-23 0 -40 -16.5t-17 -39.5t17 -39.5t40.5 -16.5t40.5 16.5t17 39.5
t-17 39.5t-41 16.5v0zM227 775q0 15 11.5 26t27.5 11h497q16 0 27 -11t11 -26v-186h-574v186v0zM801 -156q0 -16 -11 -26.5t-27 -10.5h-497q-16 0 -27.5 10.5t-11.5 26.5v335h574v-335v0zM725 142h-421v-37h421v37v0zM725 67h-421v-37h421v37v0zM725 -7h-421v-37h421v37v0z
M725 -82h-421v-37h421v37v0z" />
    <glyph glyph-name="tupian" unicode="&#xe70a;" 
d="M119 606v-639h787v639h-787zM857 17h-689v540h689v-540zM660 434.5q0 -30.5 21.5 -52t52 -21.5t52 21.5t21.5 52t-21.5 52t-52 21.5t-52 -21.5t-21.5 -52zM807 66h-589l147 393l197 -246l98 74z" />
    <glyph glyph-name="yonghuguanli" unicode="&#xe6d8;" 
d="M611 74q0 41 16 80q-10 7 -16 11v66q27 46 41 99q11 1 22 16t17 37t4 40t-11 24h1q7 52 -4 112.5t-42 88.5q-27 25 -75.5 40t-104 10t-91.5 -36q-34 -5 -62 -39t-26 -89q3 -77 5 -86q-10 -5 -12 -23.5t4 -41.5q6 -22 17 -37t21 -16q12 -43 32 -82q3 -41 3 -77q-2 1 -5 -1
q-2 0 -4 -2q-11 -7 -29.5 -23.5t-35.5 -27.5q-6 -4 -15 -9q-25 -7 -103 -21q-7 -2 -12 -4q-52 -28 -82 -77t-37 -106h675q-42 30 -66.5 75.5t-24.5 98.5zM276 117v0v0zM823.5 248q-72.5 0 -123 -51t-50.5 -123t50.5 -123t123 -51t123 51t50.5 123t-50.5 123t-123 51zM866 32
v-85h-85v85h-85v85h85v85h85v-85h85v-85h-85z" />
    <glyph glyph-name="guanbi" unicode="&#xe6cb;" 
d="M481.5 748q-97.5 0 -186 -37.5t-152.5 -101.5t-102 -153t-38 -186t38 -185.5t102 -152.5t152.5 -102t186 -38t186 38t152.5 102t102 152.5t38 185.5t-38 186t-102 153t-152.5 101.5t-186 37.5zM683 69v0q-10 -10 -24 -10t-24 10l-153 153l-154 -154v0q-10 -10 -24 -10
t-24 10t-10 24t10 24l153 154l-153 154q-10 10 -10 24t10 24v0q10 10 24 10t24 -10l153 -154l154 154v0q10 10 24 10t24 -10t10 -24t-10 -24l-153 -154l153 -153q10 -10 10 -24t-10 -24z" />
    <glyph glyph-name="renwu" unicode="&#xe678;" 
d="M270 158q14 6 38.5 15t88.5 24.5t113 15.5q53 0 113 -14t94 -27l33 -14l80 -219q-161 -27 -320 -27q-72 0 -152 7t-124 14l-45 6zM510 649q68 0 122 -46.5t65 -116.5q1 -5 1 -16t-0.5 -23.5t-0.5 -15.5q0 -19 -13.5 -46t-36.5 -53.5t-60 -45.5t-77 -19t-77 19t-60 45.5
t-36.5 53.5t-13.5 46v55q10 71 63.5 117t123.5 46z" />
    <glyph glyph-name="xiugai" unicode="&#xe6c3;" 
d="M384 166l181 51l-130 129zM867 518l-129 128l-284 -282l129 -129zM830 42q0 -34 -24 -57.5t-57 -23.5h-486q-33 0 -57 23.5t-24 57.5v485q0 34 24 57.5t57 23.5h324l81 81h-432q-55 0 -94.5 -39.5t-39.5 -95.5v-539q0 -56 39.5 -95.5t94.5 -39.5h540q56 0 95.5 39.5
t39.5 95.5v431l-81 -81v-323zM928 626l-81 80q-10 10 -25 9.5t-25 -10.5l-39 -39l129 -128l39 38q11 11 11.5 25.5t-9.5 24.5z" />
    <glyph glyph-name="shoucang" unicode="&#xe61d;" 
d="M955.5 408.5q-6.5 18.5 -25.5 21.5l-269 42l-121 258q-8 18 -29 18v0q-20 0 -29 -18l-121 -257l-270 -41q-19 -3 -25.5 -21.5t7.5 -32.5l196 -201l-47 -284q-3 -20 13 -31.5t34 -1.5l241 132l241 -133q7 -4 15 -4h1q13 0 22.5 9t9.5 23q0 6 -2 11l-45 278l196 201
q14 13 7.5 31.5z" />
    <glyph glyph-name="heimingdanchaxun" unicode="&#xe688;" 
d="M905 -212h-599l-216 216v780q0 11 8.5 19.5t20.5 8.5h786q12 0 20.5 -8.5t8.5 -19.5v-968q0 -11 -8.5 -19.5t-20.5 -8.5zM289 25h-142q-13 0 -21 -9l190 -190q2 5 2 9v162q0 11 -8.5 19.5t-20.5 8.5zM318 110h398q-12 71 -68.5 118.5t-131 47.5t-130.5 -47.5t-68 -118.5z
M517 518q-46 0 -78.5 -32t-32.5 -77t32.5 -77t78.5 -32t78 32t32 77t-32 77t-78 32zM739.5 736q-45.5 0 -77 -32t-31.5 -77t31.5 -77t77 -32t77.5 32t32 77t-32 77t-77.5 32zM739.5 544q-34.5 0 -59 24.5t-24.5 59t24.5 59t59 24.5t59 -24.5t24.5 -59t-24.5 -59t-59 -24.5z
M742 565q13 1 13 11q0 11 -13 11t-14 -11q1 -10 14 -11zM756 683q-1 10 -14 11q-14 -2 -15 -11q0 -3 1 -7l8 -68q1 -11 6 -10q5 -1 6 10l7 68q0 1 1 4v3z" />
    <glyph glyph-name="jiesuanjilu" unicode="&#xe6c4;" 
d="M659 111v15v118h45v-118h89v-45h-134v30zM948 111h-44q-7 0 -7 7v8h-1q-3 80 -61 136t-139 56q-83 0 -141.5 -58.5t-58.5 -141.5t58.5 -141.5t141.5 -58.5q71 0 126 45l-89 88h178v-177l-47 47q-73 -62 -168 -62q-107 0 -183 76t-76 183.5t76 183.5t183 76q103 0 177 -70
t82 -171q1 -2 1 -4v-15q0 -7 -8 -7zM570 481v45h149v-45h-149zM215 126h177v-45h-177v45zM496 392v-44h-118v-133h-45v133h-118v44h118v89h-118v45h55l-55 56l33 33l89 -89h37l89 89l33 -33l-55 -56h55v-45h-118v-89h118zM808 659q0 13 -9 21.5t-21 8.5h-623
q-12 0 -20.5 -8.5t-8.5 -21.5v-682q0 -12 8.5 -20.5t20.5 -8.5h290q22 -33 53 -60h-365q-28 0 -47.5 19.5t-19.5 47.5v727q0 27 19.5 46.5t47.5 19.5h667q28 0 47.5 -19.5t19.5 -46.5v-312q-27 18 -59 31v258z" />
    <glyph glyph-name="shishijiankong" unicode="&#xe657;" 
d="M667 -10q0 8 -6 13.5t-14 5.5h-272q-8 0 -13.5 -5.5t-5.5 -13.5v-78h-194v-58h699v58h-194v78v0zM900 748h-777q-24 0 -41.5 -17t-17.5 -42v-544q0 -24 17.5 -41t41.5 -17h777q24 0 41 17t17 41v544q0 25 -17 42t-41 17v0zM900 165q0 -8 -5.5 -14t-13.5 -6h-739
q-8 0 -13.5 6t-5.5 14v505q0 8 5.5 13.5t13.5 5.5h739q8 0 13.5 -5.5t5.5 -13.5v-505v0zM519 631zM508 547q-33 0 -64 -12.5t-51.5 -30.5t-36 -36t-22.5 -30l-8 -13q4 -4 10 -12.5t26 -29.5t40.5 -37t51 -29t59.5 -13t58.5 12.5t51 30.5t39 36t26.5 31l8 12q-3 5 -8.5 13.5
t-24 29t-39 36.5t-52 29t-64.5 13v0zM511 337q-36 0 -62 26t-26 62.5t26 62.5t62.5 26t62.5 -26t26 -62.5t-26 -62.5t-63 -26v0zM455 425q0 12 4.5 22t12.5 18t18 12.5t21.5 4.5t21.5 -4.5t18 -12.5t12.5 -18t4.5 -22h-113zM568 426q0 -11 -4.5 -21.5t-12 -18.5t-18 -12
t-21.5 -4t-21.5 4t-18.5 12t-12.5 18.5t-4.5 21.5h113z" />
    <glyph glyph-name="zixunzhidao" unicode="&#xe703;" 
d="M715 374.5q0 68.5 -44 126t-119 91t-163.5 33.5t-163.5 -33.5t-118.5 -91t-43.5 -126.5q0 -59 33.5 -111t92.5 -87q0 -25 -10.5 -54.5t-21.5 -45.5l-10 -17q46 -1 89.5 14.5t62.5 28t33 25.5q28 -4 57 -4q88 0 163 34t119 91.5t44 126zM560 398q17 0 29.5 -12t12.5 -29
t-12.5 -29t-29.5 -12t-29 12t-12 29t12 29t29 12zM235 398q17 0 29.5 -12t12.5 -29t-12.5 -29t-29.5 -12t-29 12t-12 29t12 29t29 12zM362 357q0 17 12 29t29 12t29 -12t12 -29t-12 -29t-29 -12t-29 12t-12 29zM960 293q0 97 -85 168.5t-209 81.5q48 -35 75 -82.5t27 -100.5
q0 -68 -43.5 -125.5t-118.5 -91.5t-164 -34q-7 0 -34 3q94 -70 225 -70q26 0 57 4q13 -13 32 -25.5t63 -28t90 -15.5q-5 7 -12 19t-18.5 43t-10.5 56q58 35 92 87t34 111z" />
    <glyph glyph-name="iconfontcolor54" unicode="&#xe604;" 
d="M570 742v-508h-508q8 -123 73.5 -225.5t172 -161.5t231.5 -59q97 0 185.5 38t152 101.5t101.5 152t38 186.5q0 124 -59 230.5t-161.5 172t-225.5 73.5zM517 812q-103 0 -197.5 -40.5t-162.5 -108.5t-108.5 -162.5t-40.5 -197.5h509v509z" />
    <glyph glyph-name="iconfontcolor65" unicode="&#xe6d4;" 
d="M512 812q-139 0 -257 -68.5t-186.5 -186.5t-68.5 -257t68.5 -257t186.5 -186.5t257 -68.5t257 68.5t186.5 186.5t68.5 257t-68.5 257t-186.5 186.5t-257 68.5zM512 -164q-192 0 -328 136t-136 328t136 328t328 136t328 -136t136 -328t-136 -328t-328 -136zM512 716
q-172 0 -294 -122t-122 -294t122 -294t294 -122t294 122t122 294t-122 294t-294 122zM722 545l-179 -196v-29h150v0q11 -1 18.5 -8.5t7.5 -18t-7.5 -18t-18.5 -8.5v0v0h-1v0h-149v-55h150v0q11 0 18.5 -7.5t7.5 -18.5t-7.5 -18.5t-18.5 -7.5v0v0h-1v0h-149v-125v16
q0 -14 -10 -24t-24 -10t-24 10t-10 24v-16v125h-147v0q-11 0 -18.5 7.5t-7.5 18.5t7.5 18.5t18.5 7.5v0v0h147v55h-147v0v0v0q-11 0 -19 8t-8 18.5t8 18.5t19 8v0v0v0h147v29l-176 196q0 1 -0.5 3t-1.5 7t-0.5 9.5t2.5 9t6.5 7t13 2.5t20.5 -4q9 -3 18 -11.5t14 -15.5l4 -7
l137 -147l139 147q17 29 40 34q25 5 32.5 -3.5t3.5 -19.5z" />
    <glyph glyph-name="jisuansolid" unicode="&#xe69a;" 
d="M512 389q-20 0 -34 -14t-14 -34t14 -34.5t34 -14.5t34 14.5t14 34.5t-14 34t-34 14zM512 161q-20 0 -34 -14t-14 -34t14 -34.5t34 -14.5t34 14.5t14 34.5t-14 34t-34 14zM274 389q-20 0 -34 -14t-14 -34t14 -34.5t34 -14.5t34.5 14.5t14.5 34.5t-14.5 34t-34.5 14z
M274 161q-20 0 -34 -14t-14 -34t14 -34.5t34 -14.5t34.5 14.5t14.5 34.5t-14.5 34t-34.5 14zM750 389q-20 0 -34.5 -14t-14.5 -34t14.5 -34.5t34.5 -14.5t34 14.5t14 34.5t-14 34t-34 14zM870 746h-716q-25 0 -43 -18t-18 -43v-770q0 -25 18 -43t43 -18h716q25 0 43 18
t18 43v770q0 25 -18 43t-43 18zM274.5 34q-32.5 0 -56 23t-23.5 55.5t23.5 56t56 23.5t55.5 -23.5t23 -56t-23 -55.5t-55.5 -23zM274.5 262q-32.5 0 -56 23t-23.5 55.5t23.5 56t56 23.5t55.5 -23.5t23 -56t-23 -55.5t-55.5 -23zM512 34q-33 0 -56 23t-23 55.5t23 56t56 23.5
t56 -23.5t23 -56t-23 -55.5t-56 -23zM512 262q-33 0 -56 23t-23 55.5t23 56t56 23.5t56 -23.5t23 -56t-23 -55.5t-56 -23zM749.5 34q-32.5 0 -55.5 23t-23 55.5t23 56t55.5 23.5t56 -23.5t23.5 -56t-23.5 -55.5t-56 -23zM749.5 262q-32.5 0 -55.5 23t-23 55.5t23 56
t55.5 23.5t56 -23.5t23.5 -56t-23.5 -55.5t-56 -23zM900 573h-776v112q0 13 9 22t21 9h716q12 0 21 -9t9 -22v-112zM750 161q-20 0 -34.5 -14t-14.5 -34t14.5 -34.5t34.5 -14.5t34 14.5t14 34.5t-14 34t-34 14z" />
    <glyph glyph-name="shexiangtou" unicode="&#xe655;" 
d="M694 -22q-87 -42 -182 -42q-92 0 -177 40l-42 -44q-25 -26 -10.5 -59t50.5 -33h371q35 0 49 32.5t-11 57.5zM512 512q66 0 113 -47t47 -113t-47 -113t-113 -47t-113 47t-47 113t47 113t113 47zM512 704q-146 0 -249 -103t-103 -249t103 -249t249 -103t249 103t103 249
t-103 249t-249 103v0z" />
    <glyph glyph-name="msnui-sys-data" unicode="&#xe63a;" 
d="M649 102q0 7 -5 13t-12 6h-240q-7 0 -12 -6t-5 -13v-78h-172v-57h617v57h-171v78zM897 804h-771q-24 0 -40.5 -17t-16.5 -41v-540q0 -24 16.5 -40.5t40.5 -16.5h771q24 0 41 16.5t17 40.5v540q0 24 -17 41t-41 17v0zM897 226q0 -8 -5.5 -14t-13.5 -6h-732q-8 0 -14 6
t-6 14v501q0 8 6 13.5t14 5.5h732q8 0 13.5 -5.5t5.5 -13.5v-501v0zM700 263h104v303h-104v-303zM533 263h104v396h-104v-396zM220 263h104v116h-104v-116zM366 263h104v210h-104v-210zM366 263z" />
    <glyph glyph-name="zhangdanchaxun" unicode="&#xe700;" 
d="M864 -90q0 -23 -13.5 -40t-32.5 -17h-610q-19 0 -32.5 17t-13.5 40v780q0 24 13.5 41t32.5 17h610q19 0 32.5 -17t13.5 -41v-780zM741.5 545.5q-52.5 52.5 -127 52.5t-127 -52.5t-52.5 -127t52.5 -127.5t127 -53t127 53t52.5 127.5t-52.5 127zM526 329.5
q-37 36.5 -37 88.5t37 88.5t88.5 36.5t88.5 -36.5t37 -88.5t-37 -88.5t-88.5 -36.5t-88.5 36.5zM464 270.5q-11 10.5 -26 10.5t-26 -11l-2 -2l52 -51l2 2q11 10 11 25.5t-11 26zM240 99q-10 -11 -10 -26t10.5 -26t25.5 -11t26 11l153 153l-51 52zM607 36h187v35h-187v-35z
M607 94h187v35h-187v-35z" />
    <glyph glyph-name="zhanghuxinxi" unicode="&#xe6a4;" 
d="M769 684h-448l-128 -128v-576q0 -26 19 -45t45 -19h512q27 0 45.5 19t18.5 45v640q0 26 -18.5 45t-45.5 19zM513 620h64v-128h-64v128zM594 332.5q0 -33.5 -24 -57.5t-58 -24t-57.5 24t-23.5 57.5t23.5 57.5t57.5 24t58 -24t24 -57.5zM417 620h64v-128h-64v128zM321 620
h64v-128h-64v128zM672 -11h-322q-1 6 -1 13q0 93 47.5 159.5t114.5 66.5t114 -66.5t47 -159.5v-13zM673 492h-64v128h64v-128zM769 492h-64v128h64v-128z" />
    <glyph glyph-name="msnui-report-data" unicode="&#xe658;" 
d="M717 745q-20 0 -34 -14.5t-14 -34.5q0 -16 11 -30l-49 -67q-12 8 -26 8q-16 0 -29.5 -11.5t-17.5 -25.5h-90q-4 14 -17 25.5t-30 11.5q-20 0 -34 -14.5t-14 -34.5q0 -11 6 -22l-37 -37q-12 8 -27 8q-20 0 -34 -14t-14 -34t14 -34.5t34 -14.5t34 14.5t14 34.5q0 12 -6 23
l37 37q10 -7 27 -7q16 0 29.5 12t17.5 27h90q4 -15 17.5 -27t29.5 -12q20 0 34 13.5t14 33.5q0 12 -6 24l51 69q9 -4 19 -4q20 0 34.5 14t14.5 34t-14.5 34.5t-34.5 14.5zM315 433q-11 0 -18.5 7.5t-7.5 18.5t7.5 18.5t18.5 7.5t18.5 -7.5t7.5 -18.5t-7.5 -18.5t-18.5 -7.5z
M421.5 532q-10.5 0 -18.5 8t-8 18.5t8 18t18.5 7.5t18 -7.5t7.5 -18t-7.5 -18.5t-18 -8zM605 532q-11 0 -18.5 8t-7.5 18.5t7.5 18t18.5 7.5t18.5 -7.5t7.5 -18t-7.5 -18.5t-18.5 -8zM717 670q-11 0 -18.5 8t-7.5 18.5t7.5 18t18.5 7.5t18.5 -7.5t7.5 -18t-7.5 -18.5
t-18.5 -8zM863 829h-694q-8 0 -13.5 -4.5t-5.5 -12.5v-694q0 -13 19 -13h694q7 0 9 2.5t2 10.5v694q0 17 -11 17zM837 162q0 -7 -5.5 -13.5t-11.5 -6.5h-608q-6 0 -15 6.5t-9 13.5v607q0 6 9 14.5t15 8.5h608q6 0 11.5 -8t5.5 -15v-607zM766 290q0 -42 -29.5 -71.5
t-71.5 -29.5v0q-42 0 -71.5 29.5t-29.5 71.5v0q0 41 29.5 70.5t71.5 29.5v0q42 0 71.5 -29.5t29.5 -70.5v0zM806 -15q0 -21 -19 -33.5t-42 -12.5h-158q-22 0 -42.5 15t-20.5 36l13 160q0 21 15 34.5t37 13.5h151q22 0 37 -13.5t15 -34.5l14 -165v0zM468 290
q0 -42 -29.5 -71.5t-71.5 -29.5v0q-41 0 -71 29.5t-30 71.5v0q0 41 29.5 70.5t71.5 29.5v0q42 0 71.5 -29.5t29.5 -70.5v0zM509 -15q0 -21 -19.5 -33.5t-42.5 -12.5h-157q-23 0 -43.5 15t-20.5 36l13 160q0 21 15 34.5t37 13.5h151q22 0 37 -13.5t15 -34.5l15 -165v0z" />
    <glyph glyph-name="caidan" unicode="&#xe60c;" 
d="M992 588h-960q-13 0 -22.5 9.5t-9.5 22.5t9.5 22.5t22.5 9.5h960q13 0 22.5 -9.5t9.5 -22.5t-9.5 -22.5t-22.5 -9.5zM992 268h-960q-13 0 -22.5 9.5t-9.5 22.5t9.5 22.5t22.5 9.5h960q13 0 22.5 -9.5t9.5 -22.5t-9.5 -22.5t-22.5 -9.5zM992 -52h-960q-13 0 -22.5 9.5
t-9.5 22.5t9.5 22.5t22.5 9.5h960q13 0 22.5 -9.5t9.5 -22.5t-9.5 -22.5t-22.5 -9.5z" />
    <glyph glyph-name="baojifuben" unicode="&#xe61f;" horiz-adv-x="1026" 
d="M688 709h80q28 0 48 -19.5t20 -46.5v-237v-9v-40h44v14v35v237q0 46 -33 78.5t-79 32.5h-80q-9 0 -15.5 -6.5t-6.5 -16t6.5 -16t15.5 -6.5zM171 575q0 -21 16 -36.5t36 -15.5h435q21 0 36.5 15.5t15.5 36t-15.5 35t-36.5 14.5h-85v108q0 33 -23 56t-56 23h-107
q-32 0 -55.5 -23t-23.5 -56v-108h-85q-21 0 -36.5 -14.5t-15.5 -34.5zM440.5 767q21.5 0 37 -15.5t15.5 -37t-15.5 -37t-37 -15.5t-37 15.5t-15.5 37t15.5 37t37 15.5zM490 421h-4h-268q-20 0 -34.5 -14.5t-14.5 -35.5t14.5 -35.5t34.5 -14.5h193q10 7 16 22t9.5 29.5
t16.5 28.5t37 20zM646 305h-147h-19l-4 -19l-27 -128h48l21 99h128h152h128l21 -99h49l-28 128l-4 19h-19h-147h-152zM998 135l-2 11h-49h-205h-38h-207h-48l-3 -11l-25 -63v-188h22v-95h118v95h326v-95h117v95h22v188zM502.5 -24q-18.5 0 -31.5 13t-13 31.5t13 31.5
t31.5 13t31.5 -13t13 -31.5t-13 -31.5t-31.5 -13zM723 76l1 -4h-2zM843 -57h-242v98h242v-98zM934.5 -24q-18.5 0 -31.5 13t-13 31.5t13 31.5t31.5 13t31.5 -13t13 -31.5t-13 -31.5t-31.5 -13zM44 -101v739q0 28 21 49.5t48 21.5h81q9 0 15.5 6.5t6.5 16t-6.5 16t-15.5 6.5
h-81q-45 0 -79 -35t-34 -81v-738q0 -46 32.5 -78.5t78.5 -32.5h273v44h-273q-28 0 -47.5 19.5t-19.5 46.5z" />
    <glyph glyph-name="212102" unicode="&#xe64d;" 
d="M512 579q8 0 15 -3l410 -181q15 -6 20.5 -21t-1 -29.5t-21 -20t-29.5 0.5l-394 174l-394 -174q-15 -6 -29.5 -0.5t-21 20t-1 29.5t20.5 21l409 181q8 3 16 3zM512 278q8 0 15 -3l410 -181q15 -6 20.5 -21t-1 -29.5t-21 -20t-29.5 0.5l-394 174l-394 -174
q-15 -6 -29.5 -0.5t-21 20t-1 29.5t20.5 21l409 181q8 3 16 3z" />
    <glyph glyph-name="shouye" unicode="&#xe63b;" 
d="M960 343l-448 448l-448 -448h138v-366h211v262h209v-262h209v366h129zM884 708h-216v-1l216 -216v217z" />
    <glyph glyph-name="xingweizhuizong" unicode="&#xe68b;" 
d="M718 662q-20 0 -34.5 -14.5t-14.5 -34.5q0 -17 11 -31l-49 -67q-12 8 -26 8q-16 0 -29.5 -11.5t-17.5 -26.5h-91q-4 15 -17.5 26.5t-29.5 11.5q-20 0 -34.5 -14.5t-14.5 -34.5q0 -12 6 -23l-37 -37q-13 8 -27 8q-21 0 -35 -14t-14 -34.5t14 -34.5t34.5 -14t34.5 14t14 35
q0 12 -6 23l37 37q10 -7 28 -7q16 0 29.5 12t17.5 27h91q4 -15 17.5 -27t29.5 -12q20 0 34.5 14t14.5 34q0 12 -7 24l51 70q10 -5 20 -5q20 0 34.5 14.5t14.5 34.5t-14.5 34.5t-34.5 14.5v0zM313 347q-11 0 -19 8t-8 18.5t8 18.5t18.5 8t18.5 -8t8 -18.5t-8 -18.5t-18 -8v0z
M420 448q-11 0 -18.5 7.5t-7.5 18.5t7.5 18.5t18.5 7.5t18.5 -7.5t7.5 -18.5t-7.5 -18.5t-18.5 -7.5v0zM605 448q-11 0 -18.5 7.5t-7.5 18.5t7.5 18.5t18.5 7.5t18.5 -7.5t7.5 -18.5t-7.5 -18.5t-18.5 -7.5v0zM718 587q-11 0 -18.5 7.5t-7.5 18.5t7.5 18.5t18.5 7.5
t18.5 -7.5t7.5 -18.5t-7.5 -18.5t-18.5 -7.5v0zM865 747h-699q-8 0 -13.5 -5t-5.5 -12v-700q0 -12 19 -12h699q7 0 9 2t2 10v700q0 17 -11 17v0zM839 74q0 -7 -5.5 -13t-12.5 -6h-612q-7 0 -15.5 6.5t-8.5 12.5v612q0 7 9 15.5t15 8.5h612q7 0 12.5 -8.5t5.5 -15.5v-612v0z
M767 203q0 -42 -30 -71.5t-72 -29.5v0q-42 0 -71.5 29.5t-29.5 71.5v0q0 42 29.5 72t71.5 30v0q42 0 72 -30t30 -72v0v0zM808 -104q0 -21 -19.5 -34t-42.5 -13h-159q-23 0 -43.5 15.5t-20.5 36.5l14 161q0 22 15 35.5t37 13.5h152q22 0 37 -13.5t15 -35.5l15 -166v0z
M467 203q0 -42 -30 -71.5t-72 -29.5v0q-42 0 -71.5 29.5t-29.5 71.5v0q0 42 29.5 72t71.5 30v0q42 0 72 -30t30 -72v0v0zM508 -104q0 -21 -19.5 -34t-42.5 -13h-159q-23 0 -43.5 15.5t-20.5 36.5l13 161q0 22 15.5 35.5t37.5 13.5h152q22 0 37 -13.5t15 -35.5l15 -166v0z
M508 -104z" />
    <glyph glyph-name="shanchu" unicode="&#xe6bb;" 
d="M878 584.5q-11 15.5 -29.5 25.5t-46.5 10h-43q-23 0 -43 1v64q0 26 -12.5 45t-45.5 19h-295q-24 0 -41 -19t-17 -45v-63h-84q-24 0 -42 -9t-29.5 -23t-17 -30.5t-5.5 -29.5q0 -27 1 -32q0 -4 1 -5h58v-527q0 -27 9 -48t24.5 -36t37 -23t46.5 -8h420q26 0 46.5 8.5
t34.5 23t21.5 33.5t7.5 39v538h62v6q0 3 0.5 7.5t0.5 11.5q0 15 -4 33t-15 33.5zM363 685h295v-65h-295v65zM364 14q0 -42 -30 -42q-16 0 -22 10t-6 32v475h58v-475zM539 14q0 -22 -5.5 -31.5t-21.5 -9.5q-31 0 -31 41v475h58v-475zM717 16q0 -22 -5.5 -31.5t-22.5 -9.5
q-31 0 -31 41v473h59v-473z" />
    <glyph glyph-name="shipin" unicode="&#xe6f7;" 
d="M929 562q-247 -197 -267 -222v191q0 16 -11 27t-27 11h-524q-15 0 -26 -11t-11 -27v-462q0 -16 11 -27t26 -11h524q16 0 27 11t11 27v189q9 -10 76 -66t129 -107t62 -50h14t9 2t5.5 3t2.5 6.5t1 8v11.5v15v430v14.5v12.5t-1 9t-2.5 7.5t-5 4t-9 3t-14.5 0.5z" />
    <glyph glyph-name="bangdingzhanghao" unicode="&#xe6a5;" 
d="M519 453.5q0 8.5 6 14t14 5.5h263q9 0 15 -5.5t6 -14t-6 -14.5t-15 -6h-263q-8 0 -14 6t-6 14.5zM665 -58l-24 -23q-15 -15 -37.5 -15t-38 15t-15.5 36t16 36l88 86q49 47 78 19q9 -8 21 -8t20.5 8.5t8.5 20t-9 20.5q-32 31 -75.5 25.5t-84.5 -45.5l-89 -85
q-32 -32 -32 -77t32 -77q33 -32 79.5 -32t79.5 32l24 23q8 9 8 21t-8.5 20t-20.5 8t-21 -8zM539 332h77q8 0 14 6t6 14.5t-6 14.5t-14 6h-77q-8 0 -14 -6t-6 -14.5t6 -14.5t14 -6zM539 534h263q9 0 15 5.5t6 14t-6 14.5t-15 6h-263q-8 0 -14 -6t-6 -14.5t6 -14t14 -5.5z
M781 280l-30 -29q-9 -9 -9 -20.5t8.5 -20t20.5 -8.5t21 8l30 29q18 15 36 12t33.5 -18t15.5 -36t-16 -36l-94 -91q-43 -42 -72 -14q-8 8 -20.5 8t-21 -8t-8.5 -20t9 -21q29 -28 66 -28q45 0 89 42l94 91q33 32 33 77t-33 77q-34 33 -77.5 34.5t-74.5 -28.5zM430 532.5
q0 43.5 -31 74.5t-74.5 31t-74.5 -31t-31 -74.5t31 -74.5t74.5 -31t74.5 31t31 74.5zM176 309v-63h298v63q0 36 -26 62t-63 26h-121q-36 0 -62 -26t-26 -62zM892 754h-760q-30 0 -52 -22t-22 -53v-490q0 -30 22 -52t52 -22h381l35 34q28 28 59 43h-473v485h756v-295
q41 -11 74 -43l1 -0.5l1 -0.5v341q0 31 -22 53t-52 22z" />
    <glyph glyph-name="shoujibangding" unicode="&#xe620;" 
d="M485 509l16 31q17 33 51.5 42.5t70.5 -8.5q34 -16 45.5 -52t-6.5 -69l-51 -96q-24 -45 -59 -57q-29 -9 -60 6q-9 4 -12 13.5t1.5 18.5t14.5 12t19 -1q30 -15 53 29l51 96q9 16 3.5 33t-21.5 25q-14 8 -31 5t-26 -19l-16 -30q-5 -9 -14.5 -12t-18.5 1.5t-12 14t2 17.5z
M401 156q34 -16 70.5 -4t54.5 45l13 25q5 8 2 17.5t-12 14t-18.5 1.5t-14.5 -12l-13 -24q-8 -16 -25.5 -22t-34 2t-22 25t3.5 32l48 91q27 50 57 35q9 -4 18.5 -1t14 12t1.5 18.5t-12 13.5q-33 16 -66.5 1t-55.5 -58l-48 -90q-18 -34 -6.5 -69.5t45.5 -52.5zM816 679v-758
q0 -31 -21.5 -53t-52.5 -22h-460q-31 0 -52.5 22t-21.5 53v758q0 31 21.5 53t52.5 22h460q31 0 52.5 -22t21.5 -53zM569 -49.5q0 23.5 -17 40t-40 16.5t-40 -16.5t-17 -40t17 -40t40 -16.5t40 16.5t17 40zM740 677h-456v-622h456v622z" />
    <glyph glyph-name="jjshshuju" unicode="&#xe63c;" 
d="M760 -94v551h198v-551h-198zM534 340l-11 10v0l-111 110l-308 -303l-41 40l348 342v-1l2 2l121 -120l221 211l-61 61h167v-167l-66 65zM408 -94h-198v278h198v-278zM683 -94h-198v367h198v-367z" />
    <glyph glyph-name="chongdianwangdianji" unicode="&#xe723;" 
d="M511.5 748q-121.5 0 -224.5 -57.5t-163 -156.5t-60 -215q0 -117 60.5 -216t162.5 -155q29 -17 85.5 -49.5t98 -57l41.5 -24.5q160 94 226 131q101 57 161 155.5t60 215t-59.5 215.5t-163 156.5t-225 57.5zM480 44v224h-160l256 320v-224h160z" />
    <glyph glyph-name="zccg" unicode="&#xe6f8;" 
d="M533.5 -30q-14.5 19 -22 37.5t-11.5 34.5q-5 22 -7 46t2.5 48t15 50t31.5 54q7 8 9.5 16.5t5 16.5t5.5 15.5t12 13.5q6 6 11.5 16.5t9.5 20.5q4 12 8 27q8 3 15 9t12.5 16t7.5 28q2 14 0 23t-6 15t-9 11q1 33 -4 67q-4 29 -14 61.5t-31 58.5q-10 13 -24.5 24.5
t-33.5 20.5t-41.5 14.5t-46.5 5.5q-18 0 -38.5 -3t-41 -11.5t-39.5 -23t-36 -38.5t-25 -54.5t-12 -57.5q-4 -31 -4 -63q-6 -7 -10 -18q-4 -8 -5 -20t3 -26q5 -15 10.5 -22.5t10.5 -10.5q5 -4 12 -6q3 -15 7 -27q4 -10 9.5 -21t12.5 -17q13 -11 25 -22t13 -31q1 -13 1 -24
t-3.5 -21t-13 -20t-26.5 -21q-22 -14 -51.5 -22t-56.5 -17t-47 -25.5t-24 -46.5q-8 -55 -3 -89t13 -41q5 -4 24 -8.5t46 -9t60 -7.5q33 -4 67 -7t66 -4.5t56 -1.5q48 0 84 2q37 2 62 5q29 4 52 8q-34 17 -56 35t-36.5 37zM912.5 178q-14.5 35 -40 60.5t-60.5 40.5t-74 15
t-74 -15t-61 -40.5t-40.5 -60.5t-14.5 -74t14.5 -73.5t40.5 -60.5t61 -41t74 -15t74 15t60.5 41t40 60.5t14.5 73.5t-14.5 74zM880 154l-162 -162q-2 -2 -4.5 -2t-4 1l-1.5 1l-94 98l1 8l11 10h-1q15 13 17 15h8l60 -60l7 1q127 126 128 127q3 1 5 1h3l2 -1l26 -27
q2 -3 1.5 -5t-1.5 -4z" />
    <glyph glyph-name="guanliyuan" unicode="&#xe68c;" 
d="M574 -119l15 86l-63 62q-35 33 -21 76q14 42 62 49l76 11q-5 4 -9 7q-14 12 -21 26q-6 14 -7 28t2 27q2 10 5 18q3 7 9 13q7 6 13 10q7 5 15 12q6 6 12 17q6 12 11 23q4 13 8 27q9 3 16 10q7 6 13 17q6 12 8 30q2 14 0 24q-2 8 -6 16q-3 7 -9 10q0 37 -5 71q-4 30 -15 64
t-34 63q-10 12 -25 24q-15 11 -37 22q-19 9 -43 16q-24 6 -50 6q-19 0 -42 -4q-22 -4 -43 -12q-21 -9 -41.5 -24.5t-37.5 -39.5q-18 -26 -28 -58q-9 -32 -12 -60q-5 -32 -4 -67q-8 -10 -11 -19t-5 -21q-1 -12 3 -27q5 -15 11 -23t12 -12q5 -5 12 -7l9 -27q5 -13 10 -23
q5 -11 12 -17q14 -11 27 -24q12 -11 14 -33q1 -15 1 -25q0 -11 -4 -22q-4 -10 -14.5 -21t-28.5 -22q-23 -15 -54 -23q-18 -5 -128 -43q-29 -10 -50.5 -26.5t-26.5 -49.5q-7 -45 -4 -68q5 -36 14 -44q9 -6 47 -14q22 -5 65.5 -12t132.5 -15.5t173 -8.5q36 0 70 2q-1 12 1 25
v0zM942 94l-93 14q-11 1 -22 9t-15 18l-42 84q-5 10 -11 10q-7 0 -12 -10l-42 -84q-4 -10 -15 -18t-22 -9l-93 -14q-10 -1 -12.5 -7.5t5.5 -14.5l67 -65q8 -8 12 -21t2 -23l-15 -93q-3 -16 9 -16q4 0 9 3l83 43q10 6 23 6q14 0 23 -6l83 -43q5 -3 10 -3q12 0 9 16l-16 93
q-2 10 2.5 23t11.5 21l67 65q8 8 6 14.5t-12 7.5v0zM942 94z" />
    <glyph glyph-name="leadsguanli" unicode="&#xe69b;" 
d="M242 550q0 -11 -7.5 -18.5t-17.5 -7.5h-125q-11 0 -18 7.5t-7 18.5v122q0 11 7 18.5t18 7.5h125q10 0 17.5 -7.5t7.5 -18.5v-122v0zM959 568q0 -19 -13.5 -32.5t-32.5 -13.5h-535q-19 0 -32 13.5t-13 32.5v86q0 19 13 32.5t32 13.5h535q19 0 32.5 -13.5t13.5 -32.5v-86v0
zM242 238q0 -10 -7.5 -17.5t-17.5 -7.5h-125q-11 0 -18 7.5t-7 17.5v123q0 11 7 18t18 7h125q10 0 17.5 -7t7.5 -18v-123v0zM959 257q0 -19 -13.5 -32.5t-32.5 -13.5h-535q-19 0 -32 13.5t-13 32.5v85q0 19 13 32.5t32 13.5h535q19 0 32.5 -13.5t13.5 -32.5v-85v0zM242 -75
q0 -10 -7.5 -17.5t-17.5 -7.5h-125q-11 0 -18 7.5t-7 17.5v123q0 10 7 17.5t18 7.5h125q10 0 17.5 -7.5t7.5 -17.5v-123v0zM959 -56q0 -19 -13.5 -32.5t-32.5 -13.5h-535q-19 0 -32 13.5t-13 32.5v85q0 19 13 32.5t32 13.5h535q19 0 32.5 -13.5t13.5 -32.5v-85v0zM959 -56z
" />
    <glyph glyph-name="shijian" unicode="&#xe606;" 
d="M511.5 -115q-101.5 0 -194 39.5t-159 106.5t-106 159t-39.5 193.5t39.5 194t106 159t159 106t194 39.5t193.5 -39.5t159 -106t106.5 -159t39.5 -194t-39.5 -193.5t-106.5 -159t-159 -106.5t-193.5 -39.5zM511 797q-112 0 -207 -55.5t-150.5 -150.5t-55.5 -207
t55.5 -207.5t150.5 -151t207 -55.5t207.5 55.5t151 151t55.5 207.5t-55.5 207t-151 150.5t-207.5 55.5zM730 341h-219q-17 0 -29.5 12.5t-12.5 30.5v265q0 17 12.5 30t30 13t30 -13t12.5 -30v-223h176q18 0 30.5 -12.5t12.5 -30t-12.5 -30t-30.5 -12.5z" />
    <glyph glyph-name="tianjia" unicode="&#xe67e;" 
d="M419 370v382h191v-382h382v-191h-382v-382h-191v382h-383v191h383z" />
    <glyph glyph-name="mingxi" unicode="&#xe724;" 
d="M356 164h-105q-13 0 -22 -9t-9 -22t9 -22t22 -9h104q13 0 22 9t9 22t-9 22t-21 9zM460 457q13 0 22 9t9 22t-9 22t-22 9h-11v31q0 13 -9 22t-22 9t-22 -9t-9 -22v-31h-63v31q0 13 -9 22t-22 9t-22 -9t-9 -22v-31h-11q-13 0 -22 -9t-9 -22t9 -22t22 -9h74v-64h-74
q-13 0 -22 -9t-9 -21.5t9 -21.5t22 -9h74v-74q0 -12 9 -21.5t21.5 -9.5t21.5 9.5t9 21.5v74h74q13 0 22 9t9 21.5t-9 21.5t-22 9h-74v64h74zM564 540q-13 0 -22 -9.5t-9 -22t9 -21.5t22 -9h104q13 0 22 9t9 21.5t-9 22t-22 9.5h-104zM435 -9l-3 6h-243q-14 0 -23 9.5
t-9 22.5v605q0 13 9 22.5t23 9.5h542q13 0 22.5 -9.5t9.5 -22.5v-249l7 -2q31 -10 60 -27l15 -8v307q0 38 -27 65.5t-66 27.5h-584q-39 0 -66.5 -27.5t-27.5 -65.5v-647q0 -39 27.5 -66.5t66.5 -27.5h319l-14 17q-22 27 -38 60zM773 101h-157h-5h-5q-11 0 -19.5 -6.5
t-9.5 -16.5l-1 -4l-1 -4q0 -10 50 -86q4 -7 15 -7q9 0 20 6q15 8 18 19q1 7 -2 12l-15 26h112q13 0 22 9t9 21.5t-9 21.5t-22 9zM689.5 373q-107.5 0 -184 -76.5t-76.5 -184t76.5 -184t184 -76.5t184 76.5t76.5 184t-76.5 184t-184 76.5zM689.5 -66q-73.5 0 -126 52.5
t-52.5 126t52.5 125.5t126 52t125.5 -52t52 -125.5t-52 -126t-125.5 -52.5zM754 240q-5 7 -15 7q-9 0 -20 -6q-15 -8 -18 -19q-2 -6 1 -11l16 -26h-112q-13 0 -22 -9t-9 -22t9 -22t22 -9h160h7q11 0 19 7t10 17q1 2 1 3l1 4q0 11 -50 86zM766 133v0v0v0z" />
    <glyph glyph-name="yunyingzhushou" unicode="&#xe685;" 
d="M365 102q0 48 14 91t39 79.5t59.5 65t75.5 45.5q10 14 12 18q8 2 15 9q6 5 11.5 15.5t7.5 28.5q1 13 -1 21.5t-5 14.5t-9 11q0 33 -4 65q-4 29 -14 60t-31 57q-8 11 -24 22.5t-36.5 20.5t-43.5 14t-46 5q-19 0 -39 -2.5t-40 -11t-38.5 -22.5t-35.5 -37t-25 -53t-11 -56
q-3 -31 -3 -62q-8 -8 -11 -17q-4 -9 -5 -20t3.5 -25t10 -21t10.5 -11q5 -5 11 -6q9 -21 29 -45q14 -12 25.5 -23t12.5 -29q1 -13 1 -23.5t-4 -20.5t-13.5 -20t-26.5 -21q-6 -4 -31.5 -13.5t-36.5 -12.5q-21 -6 -52 -26q-15 -9 -25 -22t-13 -33q-8 -53 -3.5 -86.5t12.5 -40.5
q5 -4 24 -8q5 -1 12 -4t17 -4q27 -4 60 -8l66 -6t64 -4.5t55 -1.5h22q-20 34 -31 72.5t-11 80.5zM798 129q-18 0 -30 -13l-69 34q9 13 9 29q0 20 -14.5 34.5t-34.5 14.5t-34.5 -14.5t-14.5 -34.5q0 -17 10 -30l-53 -71q-7 2 -14 2q-17 0 -29 -12t-12 -29t12 -29t29 -12
t29 12t12 29q0 14 -9 25l53 70q10 -5 21 -5q17 0 30 10l71 -36q-3 -7 -3 -15q0 -17 12 -28.5t29 -11.5t29 11.5t12 28.5t-12 29t-29 12zM944 -107l-75 58q19 25 32 55q20 46 20 98.5t-20 98.5t-54 80.5t-80.5 55t-98.5 20.5q-53 0 -99.5 -20.5t-80.5 -55t-54.5 -80.5
t-20.5 -98.5t20.5 -98.5t54.5 -81t80.5 -54.5t99.5 -19.5q52 0 98 20q41 17 72 46l73 -57q6 -6 14.5 -6t14.5 6l4 4q6 6 6 14.5t-6 14.5zM667.5 -100q-84.5 0 -144.5 60t-60 145t60 145t144.5 60t144.5 -60t60 -145t-60 -145t-144.5 -60z" />
    <glyph glyph-name="gangqu" unicode="&#xe626;" 
d="M959 599q0 62 -43.5 105.5t-105.5 43.5h-597q-62 0 -105.5 -43.5t-43.5 -105.5v-597q0 -62 43.5 -105.5t105.5 -43.5h597q62 0 105.5 43.5t43.5 105.5v597zM885 28q0 -42 -30 -72t-72 -30h-544q-42 0 -71.5 30t-29.5 72v543q0 43 29.5 72.5t71.5 29.5h544q42 0 72 -29.5
t30 -72.5v-543zM274 -3h57l10 18h-52zM227 342l-18 3v-36h18v33zM227 396l-18 7v-40l18 -3v36zM227 240l-18 -3v-40l18 7v36zM227 291h-18v-36l18 3v33zM227 45l-18 -15q1 -14 11 -23.5t24 -9.5h6l15 18h-3q-13 0 -23 8.5t-12 21.5zM227 122l-18 -10v-59l18 15v54zM227 185
l-18 -7v-45l18 10v42zM262 585h3l-15 18h-6q-14 0 -24 -9.5t-11 -23.5l18 -15q2 13 12 21.5t23 8.5zM617 603h-38l-3 -18h35zM681 603h-45l-6 -18h41zM815 569v1v0v1v1v1v1v0v1l-1 1v0v2v0q-3 11 -12.5 18t-21.5 7h-1l-320 -269l-232 150v48l-18 15v-125l18 -7v5l192 -123
l26 -32l131 -252l3 -16h38l-3 9l16 8l6 -17h45l-10 18h-41l4 2l-142 275l20 18q4 48 40 81.5t85 33.5q6 0 12 -1l148 125v-2l18 15v6v1zM759 603h-57l-10 -18h52zM508 585v18h-36l3 -18h33zM403 585l-6 18h-45l10 -18h41zM341 585l-10 18h-57l15 -18h52zM457 585l-3 18h-38
l6 -18h35zM561 603h-36v-18h33zM797 260l18 -4v35h-18v-31zM797 207l18 -6v37l-18 3v-34zM797 148l18 -10v44l-18 6v-40zM797 309h18v35l-18 -4v-31zM797 412l18 6v44l-18 -10v-40zM797 359l18 3v37l-18 -6v-34zM352 -3h45l6 18h-41zM797 76l18 -15v56l-18 10v-51zM797 473
l18 10v56l-18 -15v-51zM525 15v-18h36l-3 18h-33zM472 -3h36v18h-33zM416 -3h38l3 18h-35zM692 15l10 -18h57l-15 18h-52zM744 300q0 44 -31.5 75.5t-75.5 31.5t-75.5 -31.5t-31.5 -75.5q0 -45 32 -76l75 -85l68 79q39 32 39 82zM637 246q-22 0 -38 16t-16 38t16 38t38 16
t37.5 -16t15.5 -38t-15.5 -38t-37.5 -16zM797 50q0 -13 -8.5 -23t-21.5 -12l15 -18q14 1 23.5 11t9.5 24v6l-18 15v-3z" />
    <glyph glyph-name="starduankai" unicode="&#xe627;" 
d="M249 424h140l85 117h-225q-76 0 -130 -54t-54 -130v-106q0 -75 54 -129t130 -54h225l-87 117h-138q-28 0 -47.5 19.5t-19.5 46.5v106q0 28 19.5 47.5t47.5 19.5zM773 541h-226l86 -117h140q27 0 46.5 -19.5t19.5 -47.5v-106q0 -27 -19.5 -46.5t-46.5 -19.5h-138l-88 -117
h226q76 0 129.5 54t53.5 129v106q0 76 -53.5 130t-129.5 54zM483 753h56v-142h-56v142zM705 665l-40 40l-115 -95l40 -40zM471 610l-115 95l-39 -40l115 -95zM483 -3h56v-143h-56v143zM550 -2l115 -95l40 40l-115 94zM317 -57l39 -40l115 95l-39 39z" />
    <glyph glyph-name="taoqiye" unicode="&#xe6c5;" 
d="M740 333v8h-1l-1 1h-1h-1l-1 1h-1l-1 1h-1h-1l-1 1h-1l-1 1h-1h-1l-1 1h-1h-1l-1 1h-1l-1 1h-1h-1l-1 1h-1h-1l-1 1h-1l-1 1h-1h-1l-1 1h-1h-1l-1 1h-1l-1 1h-1h-1l-1 1h-1h-1l-1 1h-1l-1 1h-1h-1l-1 1h-1l-1 1h-1h-1l-1 1h-1h-1l-1 1h-1l-1 1h-1h-1l-1 1h-1h-1l-1 1h-1
l-1 1h-1h-1l-1 1h-1h-1l-1 1h-1l-1 1h-1h-1l-1 1h-1h-1l-1 1h-1l-1 1h-1l-1 1h-1h-1l-1 1h-1h-1l-1 1h-1l-1 1h-1h-1l-1 1h-1l-1 1h-1h-1l-1 1h-1h-1l-1 1h-1l-1 1h-1h-1l-1 1h-1h-1l-1 1h-1l-1 1h-1h-1l-1 1h-1h-1l-1 1h-1l-1 1h-1h-1l-1 1h-1h-1l-1 1h-1l-1 1h-1h-1l-1 1
h-1l-1 1h-1h-1l-1 1h-1h-1l-1 1h-1l-1 1h-1h-1l-1 1h-1h-1l-1 1h-1l-1 1h-1h-1l-1 1h-1h-1l-1 1h-1l-1 1h-1h-1l-1 1h-1h-1l-1 1h-2q-6 3 -23 11t-30.5 12.5t-25.5 5.5l-2.5 -2.5t-1.5 -2.5q-3 -7 -0.5 -17t8 -23t6.5 -16q4 -20 17.5 -64.5t21.5 -72.5q1 -4 4 -19.5t7 -25.5
t10 -14q11 1 24 16t19 18q9 9 14 13q5 -4 30.5 -35t38.5 -35q8 8 29 26.5t33 29.5v7q-8 7 -28 31q-21 18 -28 30q-5 6 -8 9q42 31 50 48zM404 230q64 -32 103 -20q2 10 -1 23.5t-10 32.5t-8 24q-11 4 -31.5 10.5t-33 13.5t-22.5 20q-35 42 -31 98.5t45 88.5q20 16 42 24
q51 17 96.5 -6.5t62.5 -63.5q3 -7 6 -23t7 -23q2 -5 34.5 -17t41.5 -13h1q9 10 6 34.5t-8 41.5t-11 30q-26 60 -78 95t-128 34l-45 -7q-12 -3 -19 -6q-48 -19 -82 -55.5t-49 -87.5q-18 -58 -2.5 -108.5t45.5 -85t69 -54.5zM961 562q0 11 1 39.5t1 47t-2.5 39.5t-7.5 31
q-19 37 -77 38q-21 1 -69.5 0t-60.5 -1q-534 -1 -635 -1q-43 -12 -54 -52q-3 -13 -3.5 -29t0.5 -41.5t1 -39.5v-502q0 -42 2 -48q12 -34 45 -48q8 -3 21 -4.5t23 -1.5t27 0.5t24 0.5h199v-66q-14 0 -42 1t-45 1t-41 -1t-39 -5.5t-29.5 -12.5t-21.5 -22.5t-7 -34.5
q466 -1 673 -1q3 11 -7 32q-6 15 -20 24t-28.5 13.5t-39 6.5t-41 1.5t-45.5 -1.5t-42 -1v66h208h14h14h13t13 0.5t11.5 1.5t11.5 2t9.5 3t10 4t8.5 5q10 8 16.5 21t8.5 33t2.5 33t0 41.5t-0.5 38.5v389zM885 133h-754v548h754v-548z" />
    <glyph glyph-name="iconfontrizhijilu" unicode="&#xe6f3;" 
d="M651 462h-382q-18 0 -30.5 12.5t-12.5 30.5t12.5 31t30.5 13h382q18 0 30.5 -13t12.5 -31t-12.5 -30.5t-30.5 -12.5zM613 286h-344q-18 0 -30.5 13t-12.5 31t12.5 30.5t30.5 12.5h344q18 0 30.5 -12.5t12.5 -30.5t-12.5 -31t-30.5 -13zM505 111h-236q-18 0 -30.5 13
t-12.5 31t12.5 30.5t30.5 12.5h236q18 0 30.5 -12.5t12.5 -30.5t-12.5 -31t-30.5 -13zM491 -64h-222q-18 0 -30.5 13t-12.5 31t12.5 30.5t30.5 12.5h222q18 0 31 -12.5t13 -30.5t-13 -31t-31 -13zM803 -212h-637q-30 0 -51 21t-21 51v817q0 30 21 51t51 21h637q30 0 51 -21
t21 -51v-41h-65v41q0 7 -7 7h-637q-7 0 -7 -7v-817q0 -7 7 -7h637q7 0 7 7v249h65v-249q0 -30 -21 -51t-51 -21zM715 42l-63 28l224 504l63 -27zM715 10q-7 0 -13 2l-63 28q-12 5 -17 18t0 25l224 504q5 13 18 18t25 -1l63 -28q12 -5 17 -17.5t0 -25.5l-224 -504
q-5 -12 -18 -17q-6 -2 -12 -2zM696 86l3 -1l197 445l-3 1zM620 -83l1 156l120 -53zM293 812h383v-162h-383v162z" />
    <glyph glyph-name="jiaose" unicode="&#xe686;" 
d="M918 29q-28 22 -88.5 54t-106.5 54t-46 21l-117 -214l-17 51l32 65l-64 64l-64 -64l32 -65l-20 -52l-113 215q-179 -80 -241 -129q-18 -13 -33.5 -39t-25 -49.5t-17.5 -51.5t-10.5 -38.5t-3.5 -16.5v0h994q0 21 -18 76q-27 84 -73 119v0zM517 177q52 0 99 31.5t77.5 78.5
t48.5 97.5t18 90.5v38t-2.5 40.5t-6.5 44t-12.5 41.5t-20 40t-30.5 34t-42.5 28.5t-56.5 17.5t-72 7t-72 -7t-56.5 -17.5t-42.5 -28.5t-30.5 -34t-20 -40t-12.5 -41.5t-6.5 -44t-2.5 -40.5v-38q0 -40 18 -90.5t48.5 -97.5t77.5 -79t99 -31v0z" />
    <glyph glyph-name="qushifenxi" unicode="&#xe704;" 
d="M511 812q-104 0 -198.5 -40.5t-163 -109t-109 -163t-40.5 -198.5t40.5 -199t109 -163.5t163 -109t198.5 -40.5t199 40.5t163.5 109t109 163.5t40.5 199t-40.5 198.5t-109 163t-163.5 109t-199 40.5zM511 -142q-90 0 -172 35t-141 94.5t-94 141.5t-35 172t35 172t94 141
t141 94t172 35t172 -35t141.5 -94t94.5 -141t35 -172t-35 -172t-94.5 -141.5t-141.5 -94.5t-172 -35zM827 536l-120 -173l-133 100l-164 -236l-142 159l-143 -176q34 -128 139 -210t240 -82q107 0 198 52.5t143.5 143.5t52.5 198q0 123 -71 224z" />
    <glyph glyph-name="tetecheliangjiance" unicode="&#xe717;" 
d="M215 560h187v-31h-187v31v0zM184 93l37 -35v-15v-11h11h18l36 -33l24 4l20 29h25h10v11v42l65 97l-26 9l-118 -110l-53 41l-49 -29v0zM344 53l1 1v-1h-1v0zM232 177h133l-24 -21h-99v-16l-21 -5v31v11h11v0zM184 332l37 -34v-16v-11h11h18l36 -33l24 4l20 29h25h10v11v42
l65 97l-26 9l-118 -110l-53 41l-49 -29v0zM344 292l1 1v-1h-1v0zM232 416h133l-24 -21h-99v-16l-21 -5v31v11h11v0v0zM118 601h-41v-40v-648v-40h41h441h40v40v648v40h-40h-65q-8 17 -23.5 27.5t-34.5 10.5h-6q-1 36 -27 62t-64 26t-65 -26q-25 -26 -26 -62h-9
q-19 0 -34.5 -10.5t-22.5 -27.5h-64v0zM176 520v-25h323v25h19v-566h-360v566h18v0zM298 639q1 15 12 26q12 12 29 12t29 -12q11 -11 12 -26h-82v0zM925 300h-24q-8 0 -23.5 -9t-21.5 -18q-7 56 -37.5 111t-66.5 55h-97h-34v-30h27h88q31 0 57.5 -45t34.5 -94h-207v-285h20
h131v-29q0 -9 6.5 -15.5t16.5 -6.5h65q9 0 15.5 6.5t6.5 15.5v78q34 35 34 81q0 58 -35 120h44q9 0 15.5 6.5t6.5 15.5v21q0 9 -6.5 15.5t-15.5 6.5zM802 92q-47 -7 -53 22q-4 19 9.5 35t38.5 24q21 7 37 -4t16 -30t-12.5 -31.5t-35.5 -15.5z" />
    <glyph glyph-name="qian" unicode="&#xe62a;" 
d="M949 264q-31 40 -107 -5q4 19 -8 30.5t-32 11.5q-41 0 -66 -26q-23 28 -47.5 27t-69.5 -29q-35 -22 -55 -33q-4 -3 -10 -6q10 -2 17 -2q27 0 40 -0.5t33.5 -2t30.5 -6t21 -12t15.5 -20t4.5 -29.5q0 -25 -18 -42t-38 -22.5t-40 -5.5h-150q-27 0 -57.5 16t-47.5 31t-17 17
q72 -29 122 -29h150q2 0 6.5 0.5t14.5 2.5t18.5 5.5t15 10.5t6.5 16q0 22 -20 28.5t-90 6.5q-27 0 -57.5 9t-47.5 18l-17 9q-62 45 -81 57q-21 13 -27 16.5t-25 12t-31 8.5t-32.5 -2.5t-43.5 -11.5q-49 -19 -158 -70l100 -221l51 33q22 14 37 15t43 -13q163 -83 171 -87
q20 -10 38.5 -14t30.5 -5t27.5 4.5t21.5 8.5t21.5 12.5t19.5 12.5q23 13 151 97.5t152 100.5q60 43 34 77zM508 697q-85 0 -145.5 -60.5t-60.5 -145.5t60.5 -145t145.5 -60t145.5 60t60.5 145t-60.5 145.5t-145.5 60.5zM603 638l-9 -11q-55 -68 -83 -102v0h-5
q-30 39 -87 115l-1 2q41 25 90 25q52 0 95 -29zM332 491q0 42 18 78t50 60l79 -104h-122v-24h139v-27h-139v-24h139v-134q-69 5 -116.5 55.5t-47.5 119.5zM520 316v134h139v24h-139v27h139v24h-120l82 101q62 -53 62 -135q0 -69 -47.5 -119.5t-115.5 -55.5z" />
    <glyph glyph-name="zhiliuchechaxun" unicode="&#xe659;" 
d="M466 188q0 98 69.5 167.5t167.5 69.5q80 0 142.5 -47.5t84.5 -121.5v125q0 39 -25 64.5t-50 28.5l-69 171q-25 61 -95 61h-361q-70 0 -94 -61l-69 -171q-26 -3 -51 -28.5t-25 -64.5v-218h78v-55q0 -30 16 -47t36 -17t36.5 17t16.5 47v55h194q-2 13 -2 25zM290 611
q11 32 39 32h363q28 0 39 -32l52 -133h-545zM929 5l-72 73q36 50 36 110q0 78 -55.5 133.5t-134 55.5t-134 -55.5t-55.5 -134t55.5 -133.5t133.5 -55q41 0 81 18l78 -79q14 -13 33.5 -13t33.5 13.5t14 33.5t-14 33zM703.5 93q-39.5 0 -67 28t-27.5 67t27.5 67t67 28t67 -28
t27.5 -67t-27.5 -67t-67 -28zM260 295q-25 0 -42.5 17t-17.5 41.5t17.5 42t42.5 17.5t42 -17.5t17 -42t-17 -41.5t-42 -17v0z" />
    <glyph glyph-name="map-stopping" unicode="&#xe62b;" 
d="M512 827q-100 0 -185.5 -49.5t-134.5 -134.5t-49 -186q0 -70 25 -135v0q8 -21 19 -41q19 -37 43.5 -76.5t65 -93t97 -105t119.5 -89.5q63 38 119.5 89.5t97 105t65 93t43.5 76.5q44 82 44 176q0 101 -49 186t-134.5 134.5t-185.5 49.5zM512 139q-130 0 -222 92t-92 222
t92 222t222 92t222 -92t92 -222t-92 -222t-222 -92zM468 383q14 -3 39 -3q108 0 166 50q47 40 47 113q0 71 -55 109q-50 39 -156 39q-94 0 -156 -10v-468h115v170zM468 606q13 3 47 3q43 0 67 -18.5t24 -51.5q0 -35 -27 -55.5t-73 -20.5q-25 0 -38 3v140v0zM468 606z" />
    <glyph glyph-name="xiugaidingdan" unicode="&#xe6a6;" 
d="M626.5 442q8.5 0 14.5 6l327 327q6 6 6 14.5t-6 14.5t-14.5 6t-14.5 -6l-327 -327q-6 -6 -6 -14.5t6 -14.5v0q6 -6 14.5 -6zM670 419q-18 -18 -43.5 -18t-43.5 18t-18 43.5t18 43.5l197 197h-582q-27 0 -46.5 -19.5t-19.5 -46.5v-783q0 -27 19.5 -46.5t46.5 -19.5h613
q27 0 46.5 19.5t19.5 46.5v772zM255 466q0 8 6 14t14 6h206q9 0 15 -6t6 -14v0q0 -9 -6 -15t-15 -6h-206q-8 0 -14 6t-6 15v0zM760 30q0 -9 -6 -15t-14 -6h-465q-9 0 -14.5 6t-5.5 15v0q0 8 5.5 14t14.5 6h465q8 0 14 -6t6 -14v0zM760 248q0 -9 -6 -15t-14 -6h-465
q-9 0 -14.5 6t-5.5 15v0q0 8 5.5 14t14.5 6h465q8 0 14 -6t6 -14v0z" />
    <glyph glyph-name="xiaoxi" unicode="&#xe60d;" 
d="M698 32h-319v49h339l95 -95v95h145v494h-72v49h61q25 0 42.5 -17.5t17.5 -43.5v-470q0 -26 -17.5 -43.5t-42.5 -17.5h-84v-165zM161 140h-84q-25 0 -42.5 18t-17.5 43v471q0 25 17.5 43t42.5 18h688q26 0 43.5 -18t17.5 -43v-471q0 -25 -17.5 -43t-43.5 -18h-439
l-165 -164v164zM211 95l95 95h471v494h-711v-494h145v-95zM602.5 394q-17.5 0 -30 12.5t-12.5 30t12.5 30t30 12.5t30 -12.5t12.5 -30t-12.5 -30t-30 -12.5zM421.5 394q-17.5 0 -30 12.5t-12.5 30t12.5 30t30 12.5t30 -12.5t12.5 -30t-12.5 -30t-30 -12.5zM240.5 394
q-17.5 0 -30 12.5t-12.5 30t12.5 30t30 12.5t30 -12.5t12.5 -30t-12.5 -30t-30 -12.5z" />
    <glyph glyph-name="iconfonticonfontclose" unicode="&#xe607;" 
d="M557 287l266 264q9 9 9 22t-9.5 22.5t-22.5 9.5t-23 -9l-265 -264l-263 264q-9 9 -22.5 9t-23 -9t-9.5 -22.5t10 -22.5l263 -264l-265 -264q-10 -9 -10 -22.5t9.5 -22.5t22.5 -9t23 9l265 264l265 -267q10 -9 23 -9t22.5 9.5t9.5 22.5t-9 23z" />
    <glyph glyph-name="wendu2" unicode="&#xe613;" 
d="M18 618q0 10 3.5 19t10.5 15.5t15.5 10.5t19 4t19 -4t15.5 -10.5t10.5 -15.5t3.5 -19t-3.5 -19t-10.5 -15.5t-15.5 -10.5t-18.5 -4q-21 0 -35 14t-14 35v0zM0 618q0 -14 5 -26t14 -21t21.5 -14.5t26.5 -5.5t26 5.5t21 14.5t14 21t5 26t-5 26t-14 21t-21 14.5t-26 5.5
t-26.5 -5.5t-21.5 -14.5t-14 -21t-5 -26v0zM434 588h32q-3 26 -15.5 46t-31 34t-40.5 20.5t-46 6.5q-39 0 -68.5 -14t-49 -38t-29 -55t-9.5 -65t9.5 -65t29 -54.5t49 -38t68.5 -14.5q29 0 53 9.5t41.5 26.5t28.5 41.5t14 55.5h-31q-2 -22 -10.5 -41.5t-22 -34t-32 -22.5
t-41.5 -8q-33 0 -56.5 12.5t-38.5 33t-22.5 46.5t-7.5 53t7.5 53t22.5 47t38.5 33.5t56.5 12.5q18 0 34.5 -5.5t30 -15.5t23 -25.5t13.5 -34.5zM832 208l-8 3v295q0 9 -10.5 15.5t-24.5 6.5t-24 -6.5t-10 -15.5v-295l-8 -3q-28 -13 -45 -39t-17 -57q0 -43 30.5 -73.5
t74 -30.5t74 30.5t30.5 73.5q0 31 -17 57t-45 39zM939 270l-5 4v317q0 49 -44 82q-42 32 -100.5 32t-100.5 -32q-45 -33 -45 -82v-317l-4 -4q-68 -64 -68 -158q0 -90 63.5 -153.5t153.5 -63.5t154 63.5t64 153.5q0 94 -68 158v0zM789 -70q-75 0 -128.5 53.5t-53.5 128.5
q0 86 66 140l7 6v333q0 34 34 57q32 22 75.5 22t75.5 -22q34 -23 34 -57v-333l6 -6q66 -54 66 -140q0 -75 -53 -128.5t-129 -53.5v0zM976 568h34q6 0 10 3.5t4 8t-4 8t-10 3.5h-34q-5 0 -9.5 -3.5t-4.5 -8t4.5 -8t9.5 -3.5v0zM1010 542h-34q-5 0 -9.5 -3.5t-4.5 -8t4.5 -8
t9.5 -3.5h34q6 0 10 3.5t4 8t-4 8t-10 3.5v0zM1010 492h-34q-5 0 -9.5 -3t-4.5 -7.5t4.5 -8t9.5 -3.5h34q6 0 10 3.5t4 8t-4 7.5t-10 3v0zM1010 443h-34q-5 0 -9.5 -3t-4.5 -8t4.5 -8t9.5 -3h34q6 0 10 3t4 8t-4 8t-10 3v0zM1010 394h-34q-5 0 -9.5 -3t-4.5 -8t4.5 -8
t9.5 -3h34q6 0 10 3t4 8t-4 8t-10 3v0zM1010 345h-34q-5 0 -9.5 -3t-4.5 -8t4.5 -8t9.5 -3h34q6 0 10 3t4 8t-4 8t-10 3v0z" />
    <glyph glyph-name="quanxian" unicode="&#xe687;" 
d="M512 493q-27 0 -46 -19t-19 -45.5t19 -45.5t46 -19t46 19t19 45.5t-19 45.5t-46 19zM783 698q-151 0 -271 89q-120 -89 -271 -89q-53 0 -109 19v-426q0 -61 41 -141q42 -83 120 -169q70 -78 148 -137q29 -22 55 -37q11 -7 23 0q26 16 56 39q80 61 151 139q80 87 124 169
q42 79 42 137v426q-56 -19 -109 -19zM553 256v-186q0 -17 -12 -29t-29 -12v0q-17 0 -29 12t-12 29v186q-59 14 -97.5 62t-38.5 111q0 73 52 125t125 52t125 -52t52 -125q0 -63 -38.5 -111t-97.5 -62z" />
    <glyph glyph-name="yunyingfenxi2" unicode="&#xe65a;" 
d="M667 -11q0 8 -6 13.5t-14 5.5h-272q-8 0 -14 -5.5t-6 -13.5v-78h-194v-59h700v59h-194v78zM900 747h-778q-24 0 -41 -17t-17 -41v-545q0 -24 17 -41t41 -17h778q24 0 41 17t17 41v545q0 24 -17 41t-41 17zM518.5 611q27.5 0 47 -20.5t19.5 -49.5q0 -25 -16 -45
q-10 -19 -23 -55t-20 -63l-7 -27q0 13 -14.5 51.5t-28.5 70.5l-14 32v0q-10 17 -10 36q0 29 19.5 49.5t47 20.5zM765 209l-5 -24l-19 17l-132 140l-76 -80l-9 -13l-11 13l-132 140l-161 -170l-20 22l171 180l11 10l9 -10l132 -140l76 80l11 11l9 -11l125 -132l50 215l28 -8z
" />
    <glyph glyph-name="jingyingfenxi" unicode="&#xe65b;" horiz-adv-x="1025" 
d="M0 -102h1024v-75h-1024v75v0zM878 301l-221 220l-327 -408l-184 151l-146 -147v-73l146 149l187 -147l325 401l220 -219l146 109v68zM146 157l-109 -113v-110h183v164zM332 7l-39 32v-105h183v252zM658 413l-109 -136v-343h183v405zM878 189l-74 75v-330h183v338z
M732 483v292h-183v-351l108 134zM220 240v280h-183v-329l109 109zM476 333v40h-183v-191l37 -30zM987 414v179h-183v-184l74 -75z" />
    <glyph glyph-name="qiaquan" unicode="&#xe694;" 
d="M975 402v194q0 24 -16.5 40.5t-39.5 16.5h-783q-24 0 -40.5 -16.5t-16.5 -40.5v-194q26 -11 41 -34t15 -51.5t-15 -51.5t-41 -34v-194q0 -24 16.5 -40t40.5 -16h783q24 0 40 16.5t16 39.5v194q-25 11 -40.5 34t-15.5 51.5t15.5 51.5t40.5 34zM322 74q0 -7 -5.5 -13
t-13.5 -6q-7 0 -12.5 5.5t-5.5 13.5v37q0 8 5.5 13.5t12.5 5.5q8 0 13.5 -5.5t5.5 -13.5v-37zM322 186q0 -7 -5.5 -13t-13.5 -6q-7 0 -12.5 5.5t-5.5 13.5v37q0 8 5.5 13.5t12.5 5.5q8 0 13.5 -5.5t5.5 -13.5v-37zM322 298q0 -8 -5.5 -13.5t-13.5 -5.5q-7 0 -12.5 5.5
t-5.5 13.5v37q0 8 5.5 13.5t12.5 5.5q8 0 13.5 -5.5t5.5 -13.5v-37zM322 410q0 -8 -5.5 -13.5t-13.5 -5.5q-7 0 -12.5 5.5t-5.5 13.5v37q0 8 5.5 13.5t12.5 5.5q8 0 13.5 -5.5t5.5 -13.5v-37zM322 522q0 -8 -5.5 -13.5t-13.5 -5.5q-7 0 -12.5 5.5t-5.5 13.5v37q0 8 5.5 13.5
t12.5 5.5q8 0 13.5 -5.5t5.5 -13.5v-37z" />
    <glyph glyph-name="youhuiquan" unicode="&#xe7c5;" 
d="M948 286l-445 445h-1v1q-11 15 -30 15h-368q-16 0 -27.5 -11.5t-11.5 -27.5v-368q0 -19 15 -30q1 0 1 -0.5v-0.5l445 -445q11 -11 27 -11t27 11l368 368q11 11 11 27t-11 27v0v0zM220 669q24 0 41 -17t17 -41t-17 -41t-41 -17t-41 17t-17 41t17 41t41 17v0v0zM220 669z
" />
    <glyph glyph-name="gzrz" unicode="&#xe670;" 
d="M512 588q19 0 31.5 13t12.5 32v91q0 18 -12.5 31t-31.5 13t-31.5 -13t-12.5 -31v-91q0 -19 12.5 -32t31.5 -13v0zM738 588q18 0 31 13t13 32v91q0 18 -13 31t-31.5 13t-31.5 -13t-13 -31v-91q-1 -18 12.5 -31.5t32.5 -13.5v0zM903 677h-75v-44q0 -37 -26.5 -64t-64 -27
t-64 27t-26.5 64v44h-44v-44q0 -37 -27 -64t-64 -27t-64 27t-27 64v44h-44v-44q0 -37 -26.5 -64t-64 -27t-64 27t-26.5 64v44h-75q-19 0 -32 -12.5t-13 -31.5v-781q0 -18 13 -31t32 -13h780q19 0 32 13t13 31v781q1 18 -11.5 31t-31.5 13v0zM871 228q5 -6 5 -13t-5 -11
l-140 -140q-6 -5 -13 -5t-12.5 5t-5.5 12t6 11l138 141q18 11 27 0v0zM836 265q5 -5 5 -12t-5 -11l-139 -141q-5 -5 -12.5 -5t-12.5 5.5t-5 12t5 10.5l139 139q11 12 25 2v0zM798 300q6 -5 6 -12t-6 -11l-138 -140q-6 -5 -13 -5t-12.5 5t-5.5 12t6 11l138 140q16 13 25 0v0z
M229 430h372q19 0 32.5 -13t13.5 -31q0 -19 -13 -32t-33 -13h-372q-19 0 -32.5 13t-13.5 32t13 31.5t33 12.5v0zM229 235h212q19 0 32.5 -13t13.5 -32t-13 -31.5t-33 -12.5h-212q-19 0 -32.5 13t-13.5 31q0 19 13 32t33 13v0zM368 -50h-140q-19 0 -33 13t-14 32
q0 18 13.5 31t33.5 13h140q19 0 32.5 -13t13.5 -31q0 -19 -13 -32t-33 -13v0zM919 156l-149 -152l-338 -143l142 338l153 149q5 6 12 6t11 -6q6 -5 6 -12t-6 -11l-140 -144l-89 -213l18 -18l213 89l144 141q5 5 12 5t11 -5q5 -6 5 -13t-5 -11v0zM286 588q19 0 32 13t13 32
v91q0 18 -13 31t-31.5 13t-31.5 -13t-13 -31v-91q0 -19 13 -32t31 -13v0z" />
    <glyph glyph-name="xinyong" unicode="&#xe705;" 
d="M853 -212h-682q-71 0 -121 50t-50 121v682q0 71 50 121t121 50h682q71 0 121 -50t50 -121v-682q0 -71 -50 -121t-121 -50zM299 428h-86v-384h86v384zM811 87h-86v42h86v86h-86v42h86v86h-86v42h86v86h-171l43 85v85l-128 43v-85l-86 -86l-128 -85v-384l128 -43h43h213h86
v86z" />
    <glyph glyph-name="shezhi1" unicode="&#xe6a7;" 
d="M930 206v143h-100q-13 55 -43 103l71 71l-101 101l-71 -72q-48 31 -103 43v101h-142v-101q-55 -12 -103 -43l-71 72l-101 -101l71 -71q-30 -48 -43 -103h-100v-143h100q12 -55 42 -103l-70 -71l101 -101l70 71q48 -31 104 -43v-100h142v100q56 12 104 43l70 -71l101 101
l-70 71q30 48 42 103h100v0zM510 55q-91 0 -155.5 64.5t-64.5 156t64.5 156t156 64.5t156 -64.5t64.5 -156t-64.5 -156t-156.5 -64.5v0z" />
    <glyph glyph-name="wenhao" unicode="&#xe63e;" 
d="M512 812q-104 0 -199 -40.5t-163.5 -109t-109 -163.5t-40.5 -199t40.5 -199t109 -163.5t163.5 -109t199 -40.5t199 40.5t163.5 109t109 163.5t40.5 199t-40.5 199t-109 163.5t-163.5 109t-199 40.5zM513.5 -135q-39.5 0 -67 28t-27.5 67t27.5 67t67 28t67 -28t27.5 -67
t-27.5 -67t-67 -28zM639 259q-31 -19 -48 -43.5t-21 -44t-2 -40t5 -28t5 -11.5v0l-139 3q-4 5 -7.5 15t-4 44t12.5 73q5 15 17.5 30.5t23 24t28.5 21t23 16.5q2 2 14 11t17 13t15.5 14t15 16.5t10 17.5t5 20t-4.5 20t-13 22q-30 37 -75 26q-22 -6 -32.5 -10t-27 -15.5
t-31.5 -33.5t-33 -59l-117 36q9 71 45.5 119.5t85.5 69t109 20.5q91 0 155 -52.5t64 -122.5q0 -23 -3.5 -42.5t-12.5 -43.5t-29 -46t-50 -40z" />
    <glyph glyph-name="jiesuanzhanghu" unicode="&#xe690;" 
d="M908 656q0 17 -11 29t-28 14h-1h-719h-2q-16 -2 -27.5 -14t-11.5 -29v-716q0 -17 12.5 -29.5t29.5 -12.5h716q18 0 30 12.5t12 29.5v716zM409.5 25.5q-6.5 -6.5 -15.5 -6.5t-15 6l-59 59l-56 -56q-6 -6 -15 -6t-15.5 6.5t-6.5 15.5t6 15l56 56l-52 52q-6 6 -6 15t6 15.5
t15 6.5t16 -7l52 -52l55 56q6 6 15 6t15.5 -6.5t6.5 -15.5t-6 -15l-56 -55l59 -59q7 -6 7 -15t-6.5 -15.5zM422 472h-79v-83q0 -9 -6 -15t-15 -6t-15.5 6t-6.5 15v83h-79q-8 0 -14.5 6.5t-6.5 15.5t6.5 15.5t14.5 6.5h79v73q0 9 6.5 15.5t15.5 6.5t15 -6.5t6 -15.5v-73h79
q9 0 15 -6.5t6 -15.5t-6 -15.5t-15 -6.5zM794 33h-200q-9 0 -15 6t-6 15t6 15.5t15 6.5h200q9 0 15.5 -6.5t6.5 -15.5t-6.5 -15t-15.5 -6zM794 150h-200q-9 0 -15 6.5t-6 15.5t6 15.5t15 6.5h200q9 0 15.5 -6.5t6.5 -15.5t-6.5 -15.5t-15.5 -6.5zM794 472h-200q-9 0 -15 6.5
t-6 15.5t6 15.5t15 6.5h200q9 0 15.5 -6.5t6.5 -15.5t-6.5 -15.5t-15.5 -6.5z" />
    <glyph glyph-name="iconsvgjicunmingxi" unicode="&#xe6a8;" 
d="M437 238l-27 -36l12 -9l27 36zM404 177h61v16h-43h-52h-43v-16h62v-31h-62v-16h62v-30h15v30h62v16h-62v31zM429 570h165q9 0 15.5 6.5t6.5 15.5v40q0 9 -6.5 15.5t-15.5 6.5h-53v29q0 13 -8.5 21.5t-21 8.5t-21 -8.5t-8.5 -21.5v-29h-53q-9 0 -15.5 -6.5t-6.5 -15.5v-40
q0 -9 6.5 -15.5t15.5 -6.5zM356 239l-13 -9l27 -37l13 9zM795 615h-149v-42q0 -12 -8.5 -20.5t-19.5 -8.5h-212q-12 0 -20.5 8.5t-8.5 20.5v42h-149v0q-23 0 -39 -16t-16 -39v-617q0 -23 16 -39.5t39 -16.5h567q23 0 39 16.5t16 39.5v617q0 23 -16 39t-39 16zM273 176
q0 51 36 87t87 36t87.5 -36t36.5 -87t-36.5 -87.5t-87.5 -36.5t-87 36.5t-36 87.5zM731 52h-269q26 16 42 35h227q8 0 13 -5t5 -12t-5 -12.5t-13 -5.5zM731 106h-216q9 13 15 35h201q8 0 13 -5t5 -12q0 -8 -5 -13t-13 -5zM731 158h-198q1 6 1 18t-1 18h198q8 0 13 -5.5
t5 -13t-5 -12.5t-13 -5zM731 212h-201q-6 19 -15 35h216q8 0 13 -5t5 -12q0 -8 -5 -13t-13 -5zM731 264h-227q-18 21 -42 35h269q8 0 13 -5t5 -12q0 -8 -5 -13t-13 -5zM731 316h-283q-7 0 -12.5 5t-5.5 13t5.5 13t12.5 5h283q8 0 13 -5t5 -13t-5 -13t-13 -5zM732 370h-283
q-7 0 -12.5 5.5t-5.5 13t5.5 12.5t12.5 5h283q8 0 13 -5t5 -12.5t-5 -13t-13 -5.5z" />
    <glyph glyph-name="xiangyou" unicode="&#xe61e;" 
d="M575 684l386 -385l-382 -382l-45 45l304 305h-772v64h772l-308 308z" />
    <glyph glyph-name="shenhe" unicode="&#xe697;" 
d="M423 51h-188v36h180q-3 20 -3 36q0 36 11 71h-188v35h202q32 68 96 107h-298v35h420v0h3h3q78 0 142 -44v329h-213v71h-249v-71h-213v-749h410q-87 49 -115 144zM235 513h462v-35h-462v35zM910 -76l-101 101q30 44 30 98q0 73 -52 125t-126 52t-126 -52t-52 -125.5
t52 -125.5t126 -52q53 0 98 29l101 -100zM661 16q-44 0 -75.5 31t-31.5 75.5t31.5 75.5t75.5 31t75.5 -31t31.5 -75q0 -24 -11 -46v0q-16 -34 -50 -50v0q-23 -11 -46 -11z" />
    <glyph glyph-name="shouqi" unicode="&#xe64c;" 
d="M580 668h-151l373 -368l-373 -368h151l373 368zM222 668h-151l373 -368l-373 -368h151l373 368z" />
    <glyph glyph-name="xinzengquyu" unicode="&#xe651;" 
d="M1023 -18q0 34 -20.5 60t-52.5 34v4v438v5q32 8 52.5 34t20.5 60v97q1 40 -27.5 68.5t-68.5 28.5h-98q-33 -1 -59.5 -21.5t-34.5 -52.5h-4h-438h-2q-8 32 -34 53t-60 21h-97q-41 -1 -69.5 -29.5t-28.5 -68.5v-97q0 -34 20.5 -60t51.5 -34v-4v-438v-3q-31 -8 -51.5 -34.5
t-20.5 -59.5v-97q1 -40 29.5 -68.5t68.5 -29.5h97q34 0 60 20.5t34 52.5h2h438q2 0 4 1q9 -32 35 -53t60 -21h97q40 0 68.5 28.5t28.5 68.5zM805 738h145v-147h-64h-9h-9h-63v147zM75 738h145v-147h-64h-8.5h-9.5h-63v147zM74 -138v145h147v-64q-1 -5 -1 -9t1 -8v-64h-147z
M293 7h-3q-7 26 -25.5 44.5t-44.5 24.5v4v438v5q25 6 44 24.5t26 43.5h3h438h4q6 -25 25 -43.5t44 -25.5v-4v-438v-3q-25 -7 -44 -25.5t-25 -44.5h-4h-438v0zM950 -138h-147v63q1 5 1 9.5t-1 9.5v63h147v-145z" />
    <glyph glyph-name="rzjl" unicode="&#xe6a9;" 
d="M842 735h-161h-1v0l-329 -1q-4 1 -8 1h-161q-27 0 -46 -19t-19 -47v-762q0 -28 19 -47t46 -19h660q27 0 46 19t19 47v131v631q0 28 -19 47t-46 19v0zM536 -41h-258q-14 0 -24 10.5t-10 25t10 25t24 10.5h258q15 0 25 -10.5t10 -25t-10.5 -25t-24.5 -10.5v0zM746 91h-468
q-14 0 -24 10.5t-10 25t10 25t24 10.5h468q14 0 24 -10.5t10 -25t-10 -25t-24 -10.5v0zM470 301h-86q-12 0 -18.5 9.5t-8.5 21.5q2 11 8.5 18.5t18.5 8.5h86v29h-86q-12 1 -18.5 9t-8.5 20q2 11 8.5 18.5t18.5 8.5h64l-60 108q-4 6 -8 14.5t-4 18.5q2 13 9 21t25 10
q11 -1 19.5 -7.5t13.5 -14.5l69 -128l74 129q6 8 14.5 14t18.5 7q7 0 12.5 -1.5t10 -5t7.5 -9t4 -15.5q0 -13 -9 -25l-69 -116h66q11 -1 18 -8.5t8 -18.5q-1 -12 -8 -20.5t-19 -9.5h-85v-28h86q11 -1 18 -9.5t7 -19.5q0 -12 -7 -20t-18 -9h-86v-48q-2 -39 -42 -39
q-20 0 -31 9.5t-12 29.5v48v0zM470 301z" />
    <glyph glyph-name="yichucheliang" unicode="&#xe62c;" 
d="M399 474.5q0 72.5 -51.5 123.5t-124 51t-123.5 -51t-51 -123.5t51 -124t124 -51.5q72 1 123.5 52t51.5 123.5zM111 454q-9 0 -15 6t-6 14.5t6 14.5t15 6h112.5h113.5q8 0 14 -6t6 -14.5t-6 -14.5t-14 -6h-113.5h-112.5zM234 98q9 8 19 14q3 1 8 4h2h-123v0v-4v-87
q0 -7 5 -12t12 -5h37v1v1q0 7 1 15q1 10 3 18q10 33 36 55zM667 134v1h17v333v3v51q0 7 -5 12.5t-12 5.5h-234q9 -32 9 -64q0 -91 -64.5 -156t-155.5 -65q-64 0 -118 34v-154h18v-1h545zM939 127v131q0 29 -7 55.5t-16 43t-20.5 31t-16.5 19.5t-9 7q-4 4 -10 4h-140
q-8 0 -13 -6v-279v-10q0 -4 -3 -7h-2l1 -2q-4 -2 -8 -2h-332q11 -6 20 -14q26 -22 35 -55q3 -8 4 -18q1 -9 1 -15v-1v-1h255v1v1q0 7 1 15q2 10 4 18q10 33 36 55h1h-0.5h-0.5q12 11 27 18q12 5 23 7q12 3 24 3t23 -3q12 -2 24 -7q15 -7 27 -18q26 -22 36 -55q2 -8 3 -18
q2 -8 2 -15l-1 -1v-1h19q8 0 13 5t5 12v91q0 6 -5 11zM394 43q-16 42 -58 55q-14 4 -28 4t-27 -4q-42 -13 -58 -55q-3 -9 -5 -18q-1 -8 -1 -15v-1v-1q1 -38 27.5 -64t64 -26t64 26t27.5 64v1v1q0 7 -2 15q-1 9 -4 18zM878 43q-16 42 -57 55q-14 4 -28 4t-28 -4
q-42 -13 -58 -55q-3 -9 -4 -18q-2 -8 -2 -15v-1v-1q1 -38 28 -64t64 -26t63.5 26t27.5 64v2q0 7 -1 15q-2 10 -5 18z" />
    <glyph glyph-name="xinzengfangan" unicode="&#xe652;" 
d="M862 748h-508q-40 0 -69 -28.5t-29 -69.5v-507q0 -41 29 -70t69 -29h508q40 0 69 29t29 70v507q0 41 -29 69.5t-69 28.5zM809 346h-151v-150h-100v150h-150v100h150v151h100v-151h151v-100zM702 -26q0 -24 -16.5 -40.5t-40.5 -16.5h-460q-23 0 -39.5 16.5t-16.5 40.5v460
q0 24 16.5 40.5t39.5 16.5h7v64h-30q-40 0 -69 -28.5t-29 -69.5v-507q0 -41 29 -69.5t69 -28.5h507q41 0 70 28.5t29 69.5v30h-66v-6z" />
    <glyph glyph-name="yuangongfenxi" unicode="&#xe671;" 
d="M778 -88q-88 0 -150 62.5t-62 150t62 149.5t150 62t150 -62t62 -150t-62 -150t-150 -62zM895 250v0q-14 0 -25.5 -8t-16.5 -22q-10 -29 15 -48q3 -2 1 -6q-23 -37 -50 -83q-2 -3 -5 -2q-11 1 -21 -5q-2 -1 -4 1q-38 27 -71 51q-3 2 -1 5q7 12 3 25q-6 22 -29 24
q-24 1 -34 -20q-9 -21 8 -37q3 -2 1 -6q-8 -14 -20 -33q-2 -3 -5 -3q-16 3 -27 -9t-6 -28q6 -17 25 -20q20 -2 29 15t-3 32q-2 3 0 6q9 14 21 35q2 3 5 3q8 -2 17 2q2 2 5 -1q42 -30 70 -51q3 -2 1 -5q-14 -22 3.5 -42.5t42.5 -11.5q22 8 25 30q3 21 -15 35q-3 3 -1 5
q15 26 49 83q2 3 4 2q8 -2 16 0q18 3 29 16t9 31q-1 17 -14 28.5t-31 11.5zM844 473q-4 -4 -7.5 -3.5t-3.5 -3.5q0 -2 -0.5 -12.5t-5.5 -30.5q-2 -10 -6 -18t-9 -14q-5 -8 -12 -14q-1 -8 -1 -15v-8q-18 3 -37 3q-39 0 -76 -12v22l-2 1l-4 2q-2 1 -4 5q6 13 12 32
q5 16 10.5 39t9.5 55q3 26 4 46t1 35v31q12 2 26 2t22 -2q17 -5 20.5 -10t7.5 -8q4 -2 8.5 -1.5t16.5 -1.5q14 -2 22.5 -14t9.5 -29q0 -5 1 -16.5t1 -24t-1 -23t-3 -12.5zM671 502q-6 -7 -11.5 -6.5t-5.5 -5.5q0 -3 -1.5 -21t-8.5 -50q-4 -17 -11.5 -31t-15.5 -25
q-11 -12 -21 -22q-1 -13 -1 -25v-21q0 -4 1 -8q-53 -54 -64 -129l-4 -7l2 -9v-17q0 -67 35 -122.5t93 -84.5q-23 -2 -47 -3q-52 -3 -109.5 -3t-110 2t-96 6t-77.5 8.5t-53 9.5q-4 1 -10 4t-11.5 7.5t-8.5 11t-2 14.5q1 7 5.5 31.5t10.5 53t11 53t7 30.5q4 12 11.5 25.5
t25.5 27.5q9 7 33.5 15t50.5 15t49.5 12t30.5 7q15 3 26.5 7.5t11.5 12.5v59q-11 9 -21 20q-9 9 -18 21.5t-17 27.5q-14 27 -18 49.5t-5 26.5t-7.5 6.5t-9.5 10.5q-8 17 -7.5 36.5t2.5 54.5q3 35 11.5 67.5t37.5 59.5q16 13 41 21.5t51 13t50 4.5t36 -4q13 -4 21 -8.5
t12.5 -8.5t7.5 -7.5t6 -5.5q5 -4 13 -2.5t29 -2.5q23 -5 38 -24.5t17 -48.5q0 -10 1 -29t1 -40t-1.5 -38.5t-5.5 -21.5zM455 198l-40 -32l45 -119l25 105zM307 369q-1 -5 -1 -10v-10q0 -9 1 -14.5t9 -8.5q4 -2 11 -4l14 -4q8 -3 18 -6v-3q0 -2 -0.5 -4.5t-0.5 -6.5
q-1 -8 -9 -10t-19 -4l-10 -2q-5 -1 -9 -2t-9 -2l-17 14l-19 -23q-2 0 -4 -1q-4 -2 -6 -2l-12 -3l-24 27l-22 -18l10 -25q-14 -8 -26 -17q-11 -8 -22.5 -16.5t-19.5 -17.5q-8 -10 -13.5 -21t-8.5 -23q-4 -12 -6 -24q-13 1 -24 3q-10 2 -20.5 3t-17.5 3q-14 3 -16.5 14.5
t-0.5 21.5t7 34t9 40q6 35 35 49q8 3 22 7t27 7q13 4 25 7t17 4q10 2 13.5 6t4.5 10v17v12q-6 5 -10 10t-8.5 10t-7.5 10q-6 8 -11.5 20.5t-6.5 25.5q-2 13 -4 13.5t-5 2.5t-4 5t-3 11t-1 18.5t2 24.5q0 6 1 16t4.5 21.5t10.5 22.5t19 19q14 10 30.5 14t31.5 5q16 1 32 -1
q-3 -24 -3 -49q-1 -21 1 -47.5t7 -49.5q4 -17 10.5 -32.5t13.5 -27.5q8 -14 16 -27q-1 -7 -1 -12zM263 614v0v0v0z" />
    <glyph glyph-name="weizhang" unicode="&#xe6dd;" horiz-adv-x="1203" 
d="M780 -11q-29 0 -49 20.5t-20 49t20 48.5t48.5 20t49 -20t20.5 -48.5t-20.5 -49t-48.5 -20.5v0zM632 40v0q0 -8 -6 -14t-15 -6h-194q-8 0 -14 6t-6 14v58q0 8 6 14.5t14 6.5h194q9 0 15 -6t6 -15v-58v0zM246 -11q-29 0 -49 20.5t-20 49t20 48.5t49 20t49 -20t20 -48.5
t-20 -49t-49 -20.5v0zM225 374l30 81v2q2 7 4 11.5t8 11t8 9.5h476q3 -4 7 -8.5t5.5 -7t3.5 -7t3 -9.5l31 -83l11 -45q-1 -24 -25 -41.5t-50 -17.5h-449q-25 0 -49 17.5t-26 41.5l12 45v0zM977 348h-92q-6 0 -12 -3l-41 124q-10 52 -43.5 78.5t-81.5 26.5h-389
q-51 0 -83 -29t-41 -76l-42 -125q-6 4 -12 4h-92q-11 0 -18.5 -7.5t-7.5 -18.5v-22q0 -10 7.5 -17.5t18.5 -7.5l35 -6q-18 -34 -18 -75l-13 -147q0 -5 1 -13q-1 -5 -1 -8v-177q0 -19 13.5 -32.5t32.5 -13.5h70q19 0 32 13.5t13 32.5v56h599v-56q0 -19 13.5 -32.5t32.5 -13.5
h70q18 0 31.5 13.5t13.5 32.5v177q0 3 -1 8q1 7 1 13l-13 147q0 41 -17 75l34 5q11 0 18.5 7.5t7.5 18.5v22q0 11 -7.5 18.5t-18.5 7.5zM1162 579q8 0 18.5 12.5t14.5 21.5q2 4 4 11t2.5 15t-2 14t-9.5 6h-53v39h25q8 0 18.5 12.5t14.5 21.5q2 4 4 11t2.5 15t-2 14t-9.5 6
h-53v14h15v20h-237v-20h15v-15h-51q-6 0 -9 -6t-2 -14t3 -15t3 -11q5 -9 15 -21.5t18 -12.5h23v-39h-51q-6 0 -9 -6t-2 -14t3 -15t3 -11q5 -10 15 -21.5t17 -11.5h23v-39h-50q-6 0 -9 -6t-2 -14t3 -15t3 -11q5 -9 15 -21.5t18 -12.5h23v-30h36v-14h134v14h36v30h25
q8 0 18.5 12.5t14.5 21.5q2 4 4 11t2.5 15t-2 14t-9.5 6h-53v39h26zM1034 453q-18 0 -32 13.5t-14 32.5q0 20 13.5 33t32.5 13t32.5 -13.5t13.5 -32.5t-13.5 -32.5t-32.5 -13.5v0zM1034 562q-18 0 -32 13.5t-14 32.5q0 20 13.5 33t32.5 13t32.5 -13.5t13.5 -32.5
t-13.5 -32.5t-32.5 -13.5v0zM1034 671q-18 0 -32 13.5t-14 32.5q0 20 13.5 33t32.5 13t32.5 -13.5t13.5 -32.5t-13.5 -32.5t-32.5 -13.5v0z" />
    <glyph glyph-name="shanchu1" unicode="&#xe67f;" 
d="M128 627q0 20 14.5 34.5t34.5 14.5h247v49q0 20 14.5 34.5t34.5 14.5h99q20 0 34.5 -14.5t14.5 -34.5v-49h247q20 0 34.5 -14.5t14.5 -34.5v-49h-789v49zM868 480v-98v-507q0 -20 -14.5 -34.5t-34.5 -14.5h-592q-21 0 -35.5 14.5t-14.5 34.5v507v98v49h691v-49zM375 382
q0 20 -14.5 34.5t-35 14.5t-35 -14.5t-14.5 -34.5v-409q0 -20 14.5 -34.5t35 -14.5t35 14.5t14.5 34.5v409v0zM572 382q0 20 -14.5 34.5t-35 14.5t-35 -14.5t-14.5 -34.5v-409q0 -20 14.5 -34.5t35 -14.5t35 14.5t14.5 34.5v409zM769 382q0 20 -14.5 34.5t-34.5 14.5
t-34.5 -14.5t-14.5 -34.5v-409q0 -20 14.5 -34.5t34.5 -14.5t34.5 14.5t14.5 34.5v409z" />
    <glyph glyph-name="font20" unicode="&#xe621;" 
d="M408 -84v290h99q103 0 157 11q40 9 79 36.5t64 75.5t25 119q0 91 -43.5 149t-108.5 75q-42 12 -180 12h-244v-768h152zM481 554q82 0 109 -5q37 -7 61.5 -34.5t24.5 -68.5q0 -34 -17.5 -60t-47.5 -38t-120 -12h-83v218h73z" />
    <glyph glyph-name="wodekaoqin" unicode="&#xe718;" 
d="M882 679h-70v90q0 14 -10 24t-24 10h-2q-14 0 -24 -10t-10 -24v-90h-456v90q0 14 -10 24t-24 10h-3q-14 0 -23.5 -10t-9.5 -24v-90h-74q-47 0 -80 -33t-33 -79v-619q0 -46 33 -79t80 -33h740q47 0 80 33t33 79v619q0 46 -33 79t-80 33zM795 313l-335 -335q-3 -3 -7 -5
q-8 -4 -16 -4q-12 0 -21 9l-181 181q-9 9 -9 21.5t9 21.5t21.5 9t21.5 -9l160 -160l313 314q9 9 22 9t21.5 -9t8.5 -21.5t-8 -21.5zM927 495h-829v117h829v-117z" />
    <glyph glyph-name="cheliangjiankong" unicode="&#xe65c;" 
d="M665 347q13 0 22.5 9.5t9.5 22.5t-9.5 22.5t-22.5 9.5t-22.5 -9.5t-9.5 -22.5t9.5 -22.5t22.5 -9.5zM352.5 347q13.5 0 23 9.5t9.5 22.5t-9.5 22.5t-23 9.5t-23 -9.5t-9.5 -22.5t9.5 -22.5t23 -9.5zM423 393h175v-71h-175v71zM946 727h-868q-32 0 -55 -24t-23 -57v-550
q0 -33 23 -56.5t55 -23.5h349v-86h-187q-5 0 -9 -4t-4 -9v-30q0 -6 4 -10t9 -4h542q6 0 10 4t4 10v30q0 5 -4 9t-10 4h-185v86h349q32 0 55 23.5t23 56.5v550q0 33 -23 57t-55 24zM333 571l3 13h14h106h110h107h13l3 -13l20 -93h-35l-15 72h-93h-110h-92l-16 -72h-35z
M293 416l19 45l1 8h35h150h28h148h35l2 -8l20 -45v-136h-16v-69h-85v69h-236v-69h-85v69h-16v136zM967 86q0 -6 -4 -10t-9 -4h-884q-5 0 -9 4t-4 10v30q0 6 4 9.5t9 3.5h884q5 0 9 -3.5t4 -9.5v-30z" />
    <glyph glyph-name="icon1" unicode="&#xe622;" 
d="M722 244l6 29l3 26l-3 27l-6 29l-9 28l-13 27l-15 23l-20 20l-21 21l-23 15l-26 14l-29 9l-28 5h-53l-29 -5l-29 -9l-22 -14l-27 -15l-20 -21l-20 -20l-15 -23l-14 -27l-9 -28l-6 -29l-3 -27l3 -26l6 -29l9 -29l14 -23l15 -26l20 -21l20 -20l24 -15l25 -14l29 -9l29 -5
h53l28 5l29 9l26 14l23 15l21 20l20 21l15 26l13 23zM554 288l-8 -15l-8 -9l-15 -8h-23l-15 8l-8 9l-9 15l-3 11l3 12l9 15l8 8l15 9h23l15 -9l8 -8l8 -15l4 -12zM303 116l-12 15l-14 23l-17 29l-12 35l-11 38l-3 46l6 53l11 43l21 38l19 32l21 23l20 18l12 11l5 3l-35 29
l-5 -3l-15 -12l-20 -17l-20 -29l-23 -35l-20 -43l-15 -53l-6 -61l3 -46l12 -43l14 -38l18 -35l17 -27l18 -20l10 -11l3 -6l32 28l-3 3zM135 543l-8 -14l-12 -17l-14 -29l-15 -35l-11 -44l-9 -49l-3 -56l3 -49l9 -43l11 -41l15 -38l11 -29l12 -23l9 -15l2 -6l38 21l-3 6
l-9 11l-9 20l-11 26l-14 35l-9 38l-9 44l-2 46l2 53l9 43l12 38l11 32l11 23l12 18l9 11l3 3l-38 23zM809 413l-20 43l-20 35l-24 29l-20 17l-14 12l-6 3l-34 -29l5 -3l12 -11l20 -18l20 -23l20 -32l21 -38l11 -43l6 -53l-3 -46l-11 -38l-12 -35l-15 -29l-17 -23l-12 -15
l-11 -12l-2 -3l31 -28l3 6l11 11l18 20l17 27l18 35l14 38l12 43l3 46l-6 61zM954 355l-9 49l-11 44l-15 35l-14 29l-12 17l-9 14l-3 3l-37 -23l3 -3l8 -11l12 -18l11 -23l12 -32l12 -38l8 -43l3 -53l-3 -46l-8 -44l-9 -38l-12 -35l-14 -26l-9 -20l-8 -11l-3 -6l37 -21l3 6
l9 15l11 23l15 29l12 38l11 41l9 43l3 49z" />
    <glyph glyph-name="iconweizhangchaxun" unicode="&#xe68f;" 
d="M820 256h-422q-65 0 -110.5 -45.5t-45.5 -110t45.5 -110t110.5 -45.5h422q64 0 109.5 45.5t45.5 110t-45.5 110t-109.5 45.5zM381.5 52q-21.5 0 -36.5 15t-15 36.5t15 36.5t36.5 15t36.5 -15t15 -36.5t-15 -36.5t-36.5 -15zM845.5 52q-21.5 0 -36.5 15t-15 36.5t15 36.5
t36.5 15t36.5 -15t15 -36.5t-15 -36.5t-36.5 -15zM386 208v68q0 48 34.5 82.5t82.5 34.5h202q48 0 82.5 -34.5t34.5 -82.5v-68h65v68q0 75 -53.5 128.5t-128.5 53.5h-202q-75 0 -128.5 -53.5t-53.5 -128.5v-68h65zM331 -69q0 -21 15 -36t36 -15t35.5 15t14.5 36v48h-101v-48
zM797 -21v-48q0 -21 14.5 -36t35.5 -15t36 15t15 36v48h-101zM527 611h-55v70q0 21 -15 36t-36 15h-69q-22 0 -37 -15t-15 -36v-70h-55q-13 0 -23.5 -9.5t-10.5 -23t10.5 -23.5t23.5 -10h282q13 0 23.5 10t10.5 23.5t-10 23t-24 9.5zM386 635q-14 0 -24 10t-10 24t10 24
t24 10t24 -10t10 -24t-10 -24t-24 -10zM378 444h-189q-12 0 -21 8.5t-9 20.5t9 20.5t21 8.5h189q12 0 21 -8.5t9 -20.5t-9 -20.5t-21 -8.5zM673.5 480q-10.5 0 -17.5 7t-7 17v70q0 28 -20 48t-48 20h-53q-10 0 -17 7.5t-7 17.5t7 17t17 7h53q48 0 82.5 -34.5t34.5 -82.5v-70
q0 -10 -7 -17t-17.5 -7zM201 19h-19q-49 0 -83 34.5t-34 82.5v438q0 48 34 82.5t83 34.5h52q10 0 17.5 -7t7.5 -17t-7.5 -17.5t-17.5 -7.5h-52q-28 0 -48.5 -20t-20.5 -48v-438q0 -28 20.5 -48t48.5 -20h19q10 0 17 -7t7 -17t-7 -17.5t-17 -7.5z" />
    <glyph glyph-name="fanhui" unicode="&#xe654;" 
d="M64 748v-896h896v896h-896zM928 -116h-832v832h832v-832zM416 364h320v-224h-320v-64h320h64v64v224v64h-384v128l-160 -160l160 -160v128z" />
    <glyph glyph-name="wodeguiji" unicode="&#xe674;" 
d="M511.5 320q-88.5 0 -151 62.5t-62.5 151t62.5 151.5t151 63t151.5 -63t63 -151.5t-63 -151t-151.5 -62.5zM531 27h-39v428h39v-428zM862 183h-311l-1 -136l20 -39l117 136h39l-65 -81l201 -55v-39l-230 58l-62 -77l-116 77l-78 -77v0v-59h-39v52l-156 104l20 39l155 -97
l98 97l19 -13v110h-311l-78 -331h856z" />
    <glyph glyph-name="ziyuandiaocha" unicode="&#xe684;" 
d="M894 504q-17 30 -39 44l-289 185q-23 15 -55 15t-55 -15l-288 -184q-22 -14 -38 -43q-16 -31 -16 -60v-292q0 -28 15.5 -58t38.5 -44l289 -185q23 -15 55 -15t55 15l289 185q23 14 38.5 44t15.5 58v292q0 29 -16 58zM538 -115v0q-13 0 -13 23v292q0 21 12.5 44.5
t29.5 34.5l289 184q8 6 15 6q13 0 13 -23v-292q0 -21 -12 -44.5t-29 -34.5l-290 -184q-8 -6 -15 -6zM471 -109l-290 184q-17 11 -29 34.5t-12 44.5v292q0 23 13 23q7 0 15 -6v0l289 -184v0q17 -11 29.5 -34.5t12.5 -44.5v-292q0 -23 -13 -23q-7 0 -15 6zM168 506q0 10 13 19
l289 184q17 11 41.5 11t40.5 -11l290 -185q13 -8 13 -18t-13 -19l-289 -184q-17 -11 -41.5 -11t-40.5 11l-290 184q-13 9 -13 19zM612 250l-60 -40v-278l279 179v0zM850 409l-219 -139v0l219 -119v258zM174 409v-258l219 119v0zM412 250l-219 -139v0l279 -179v278zM492 668
l-279 -159v0l219 -139l60 20v278zM532 668v-278v0l60 -20l219 139v0l-279 159v0z" />
    <glyph glyph-name="wendu" unicode="&#xe617;" 
d="M235 704q48 0 78.5 -30t30.5 -75.5t-30.5 -75.5t-77 -30t-78.5 30.5t-32 74.5t32 75t77 31zM235 534q26 0 43 18t17 45t-17 45t-43 18t-43 -18.5t-17 -45t17 -44.5t43 -18zM901 138q-51 -70 -111 -103t-149 -33q-134 0 -219.5 92.5t-85.5 237.5q0 132 87.5 227t217.5 95
q76 0 145.5 -37.5t114.5 -106.5l-48 -39q-85 121 -212 121q-104 0 -170.5 -73.5t-66.5 -191t66 -190t175 -72.5q71 0 118 28.5t90 85.5z" />
    <glyph glyph-name="circle_up_on" unicode="&#xe71d;" 
d="M514 832q-91 0 -174 -35.5t-142.5 -95.5t-95 -142.5t-35.5 -173.5t35.5 -174t95 -142.5t142.5 -95t174 -35.5t173.5 35.5t142.5 95t95.5 142.5t35.5 174t-35.5 173.5t-95.5 142.5t-142.5 95.5t-173.5 35.5zM791 270q-11 -11 -26.5 -11t-26.5 11l-213 213q-7 7 -13 0
l-213 -213q-11 -11 -26.5 -11t-26.5 11t-11 26.5t11 26.5l213 213q25 24 59.5 24t59.5 -24l213 -213q11 -11 11 -26.5t-11 -26.5z" />
    <glyph glyph-name="iconjihuajiankongpress" unicode="&#xe65d;" 
d="M874 746q7 -6 7 -15.5t-7 -15.5l-158 -159q63 -74 63 -172q0 -111 -78 -189t-189 -78t-189 78t-78 189t78 189t189 78q98 0 172 -63l159 158q6 7 15.5 7t15.5 -7q-71 71 -164.5 110.5t-197.5 39.5q-139 0 -257 -68.5t-186.5 -186.5t-68.5 -257t68.5 -257t186.5 -186.5
t257 -68.5t257 68.5t186.5 186.5t68.5 257q0 104 -39.5 197.5t-110.5 164.5zM512 607q-92 0 -157.5 -65.5t-65.5 -157.5t65.5 -157.5t157.5 -65.5t157.5 65.5t65.5 157.5q0 79 -51 141l-112 -112q7 -14 7 -29q0 -28 -19.5 -47.5t-47.5 -19.5t-47.5 19.5t-19.5 47.5
t19.5 47.5t47.5 19.5q15 0 29 -7l112 112q-62 51 -141 51z" />
    <glyph glyph-name="icon27" unicode="&#xe689;" 
d="M636 250q-3 4 -6 16t-7 37t-6 37q51 41 76 112q16 7 26 25t10 41q0 34 -19 54q-4 101 -60 171t-133.5 70t-133.5 -70t-60 -171q-20 -20 -20 -54q0 -23 10.5 -41t26.5 -25q22 -64 67 -105q-3 -14 -6.5 -39.5t-6.5 -39.5t-7 -18q-6 -6 -14 -12.5t-15 -11t-19 -11.5t-18 -10
t-21 -11t-20 -10q-1 -1 -40.5 -17.5t-75 -34.5t-67.5 -48.5t-32 -62.5q0 -16 10.5 -36t28.5 -20h815q18 0 28.5 20t10.5 36q0 32 -32 62.5t-67.5 48.5t-75 34.5t-40.5 17.5q-5 2 -20 10t-21 11t-18 10t-19 11.5t-15 11t-14 12.5z" />
    <glyph glyph-name="shang" unicode="&#xe638;" 
d="M512 827q-90 0 -172 -35t-141.5 -94.5t-94.5 -141.5t-35 -172t35 -172t94.5 -141.5t141.5 -94.5t172 -35t172 35t141.5 94.5t94.5 141.5t35 172t-35 172t-94.5 141.5t-141.5 94.5t-172 35zM693 369q-8 -8 -19.5 -8t-19.5 8l-114 114v-293q0 -11 -8.5 -19.5t-19.5 -8.5
t-19.5 8.5t-8.5 19.5v293l-114 -114q-8 -8 -19.5 -8t-19.5 8t-8 19.5t8 19.5l157 157q9 10 24 7q15 3 24 -7l157 -157q8 -8 8 -19.5t-8 -19.5z" />
    <glyph glyph-name="xia1" unicode="&#xe63f;" 
d="M512 827q-90 0 -172 -35t-141.5 -94.5t-94.5 -141.5t-35 -172t35 -172t94.5 -141.5t141.5 -94.5t172 -35t172 35t141.5 94.5t94.5 141.5t35 172t-35 172t-94.5 141.5t-141.5 94.5t-172 35zM693 360l-157 -157q-9 -10 -24 -7q-15 -3 -24 7l-157 157q-8 8 -8 19.5t8 19.5
t19.5 8t19.5 -8l114 -114v293q0 11 8.5 19.5t19.5 8.5t19.5 -8.5t8.5 -19.5v-293l114 114q8 8 19.5 8t19.5 -8t8 -19.5t-8 -19.5z" />
    <glyph glyph-name="renzhengxinxi" unicode="&#xe6aa;" 
d="M909 47h-794q-27 0 -46.5 19t-19.5 45v449q0 27 19.5 45.5t46.5 18.5l66 -2v97l131 2l-3 -97h402l-1 97l134 -2v-95h65q27 0 46.5 -18.5t19.5 -45.5v-449q0 -26 -19.5 -45t-46.5 -19zM281 689h-67v-129h67v129zM314 470q-30 0 -51.5 -27t-21.5 -65t21.5 -65t51.5 -27
t51 27t21 65t-21 65t-51 27zM429 250q-8 5 -25 9.5t-31 7.5l-13 2q-33 -35 -48 -35q-6 0 -17.5 9t-20.5 17l-9 9q-51 -8 -69 -19q-8 -5 -14.5 -24t-9 -33t-2.5 -16h285q0 25 -12 53q-6 15 -14 20zM810 689h-67v-129h67v129zM849 467h-295v-41h295v41zM849 384h-295v-41h295
v41zM849 300h-295v-43h295v43zM849 216h-295v-43h295v43z" />
    <glyph glyph-name="beian" unicode="&#xe618;" 
d="M928 686q-14 -14 -34 -14t-35 14l-45 46q-15 14 -15 34t14.5 34.5t34.5 14.5t34 -14l46 -46q14 -15 14 -35t-14 -34zM548 306l-114 114l338 339l115 -115zM401 240q-13 0 -22.5 9.5t-9.5 23.5l32 97q0 13 9.5 22.5t22.5 9.5l33 -32l32 -32l33 -33q0 -13 -9.5 -22.5
t-23.5 -9.5zM177 49h574v335h96v-335q0 -40 -28 -68t-68 -28h-574q-39 0 -67 28t-28 68v574q0 39 28 67t67 28h335v-95h-335v-574z" />
    <glyph glyph-name="chaxundingwei" unicode="&#xe6ab;" 
d="M463.5 322q43.5 0 74.5 31t31 74.5t-31 74.5t-74.5 31t-74.5 -31t-31 -74.5t31 -74.5t74.5 -31zM935 83l-132 134q60 97 60 211q0 108 -53.5 200t-145.5 145.5t-200.5 53.5t-200.5 -53.5t-145.5 -145.5t-53.5 -200.5t53.5 -200.5t145.5 -145.5t201 -53.5q122 0 224 69
l130 -131q24 -25 58.5 -25t59 24.5t24.5 59t-25 58.5zM140 377l100 51l-100 50q16 105 92 181t182 92l50 -100l49 100q106 -16 182 -92t92 -181l-100 -51l100 -50q-16 -106 -92 -181.5t-182 -91.5l-49 98l-50 -98q-105 15 -181.5 91t-92.5 182z" />
    <glyph glyph-name="yangzhichangchaxun" unicode="&#xe65e;" 
d="M121 104v112h28h168h167v196h140v-98q56 42 126 42h14v84h84l-168 168v112h28v28h-112v-28h28v-56l-168 168l-196 -198l-195 -194h84v-168h-28h-56v-56v-112v-56h56h444q-14 27 -20 56h-424zM457 691q23 0 39 -16t16 -39.5t-16 -40t-39 -16.5t-39.5 16.5t-16.5 40
t16.5 39.5t39.5 16zM261 412h84v-84h-84v84zM950 -8l-65 65l-3 3q25 38 25 84q0 65 -45.5 110.5t-110 45.5t-110 -45.5t-45.5 -110t45.5 -110t110.5 -45.5q46 0 84 25q3 -3 3 -4l64 -64q10 -10 23.5 -10t23 10t9.5 23.5t-9 22.5zM750.5 48q-40.5 0 -69.5 29t-29 69.5t29 69
t69.5 28.5t69 -28.5t28.5 -69t-28.5 -69.5t-69 -29z" />
    <glyph glyph-name="jiedianxiaoxituisong" unicode="&#xe6ea;" 
d="M1024 384q0 -12 -9 -22l-267 -266q-9 -9 -22 -9.5t-22 9t-9 22.5v141h-218q-13 0 -22 9t-9 22v189q0 13 9 22t22 9h218v141q0 12 9 21.5t22 9.5t22 -9l267 -267q9 -9 9 -22v0zM719 736v0h49v64q0 40 -28 68t-68 28h-512q-40 0 -68 -28t-28 -68v-832q0 -40 28 -68t68 -28
h512q40 0 68 28t28 68v41h-64v0h-576v727h591zM321 832h190q14 0 23 -9.5t9 -22.5t-9 -22.5t-23 -9.5h-190q-13 0 -22.5 9.5t-9.5 22.5t9.5 22.5t22.5 9.5zM416 0q20 0 34 -14t14 -34t-14 -34t-34 -14t-34 14t-14 34t14 34t34 14z" />
    <glyph glyph-name="weizhi" unicode="&#xe608;" 
d="M512 896q-107 0 -198 -53t-144 -144t-53 -198q0 -124 70 -224q4 -7 7 -11l288 -380q13 -14 30 -14t31 15l287 379q3 4 6 10q71 101 71 225q0 107 -53 198t-144 144t-198 53zM512 360q-58 0 -99.5 41.5t-41.5 99.5t41.5 99.5t99.5 41.5t99.5 -41.5t41.5 -99.5t-41.5 -99.5
t-99.5 -41.5z" />
    <glyph glyph-name="tingchejilu" unicode="&#xe6ac;" 
d="M720 162q-7 15 -20 17q-10 2 -26 2q-7 0 -8.5 1t-3.5 8q-38 106 -45 124q-8 23 -29 34q-24 13 -53 20q-25 5 -110 9q-44 2 -108 -4q-53 -4 -90 -24q-26 -14 -35 -40q-8 -24 -23.5 -66.5t-20.5 -56.5q-2 -5 -7 -5q-10 1 -20 0q-22 -2 -30 -22q-3 -8 -8 -27q-1 -2 0 -5
q4 -11 17 -11h23l-1 -5q-7 -22 -7 -36v-88.5v-103.5q0 -1 1 -11h127q0 6 0.5 22t1.5 25h322v-5q1 -32 1 -34q0 -1 1 -8h127l1 11v185q0 11 -3 31q0 1 -5 16l1 1h12h11q10 0 14 6t1.5 16t-8.5 24zM264 20q-1 -1 -28 -5q-51 4 -57 4q-8 1 -24 8q-8 3 -8 15q0 5 2 30
q0 11 12 15q16 4 34 -3q17 -7 67 -29q9 -4 13 -12q3 -7 0 -14.5t-11 -8.5zM399 148q-99 6 -107 7q-47 4 -92 16q-5 2 -3 6q12 49 35 112q8 19 28 26q23 7 62 10q96 8 186 -2q30 -3 49 -11q15 -6 21 -21q25 -69 37 -114q1 -5 -4 -6q-32 -8 -94 -16q-51 -7 -118 -7zM664 38
q-2 -11 -14 -14q-23 -8 -44 -7q-41 0 -48 1q-7 0 -14 3q-8 4 -9.5 12.5t5.5 14.5q9 8 17 11q30 13 69 28q11 4 27 -1q7 -2 9 -10q4 -17 2 -38zM942 811q0 30 -18 52.5t-47 29.5l-11 3h-304l-2 -1q-32 -5 -52.5 -28.5t-20.5 -55.5q-1 -182 0 -342q0 -35 24.5 -60t59.5 -25
h286q35 0 59.5 25t25.5 60v342zM885 472q0 -31 -32 -31h-278q-32 0 -32 31v336q0 31 32 31h278q32 0 32 -31v-168v-168zM800 555h-172q-13 0 -21 -11q-11 -14 -4 -30q8 -16 26 -16h85h86q12 0 20 8.5t8 20t-8 20t-20 8.5zM630 612h55.5h55.5q13 0 21.5 8t8.5 20t-8.5 20
t-21.5 8h-111q-13 0 -21.5 -8t-8.5 -20t8.5 -20t21.5 -8zM629 725h28h28q12 0 20.5 8.5t8.5 20.5t-8.5 20t-20.5 8h-56q-12 0 -20.5 -8t-8.5 -20t8.5 -20.5t20.5 -8.5z" />
    </font>
</defs>
</svg>
